<mxfile host="app.diagrams.net" agent="Mozilla/5.0 (Windows NT 10.0; Win64; x64) AppleWebKit/537.36 (KHTML, like Gecko) Chrome/130.0.0.0 Safari/537.36" version="24.8.3" pages="6">
  <diagram name="Диаграммы" id="MIZD1LcEtUlyJaFymo-P">
    <mxGraphModel dx="1911" dy="1179" grid="1" gridSize="10" guides="1" tooltips="1" connect="1" arrows="1" fold="1" page="1" pageScale="1" pageWidth="850" pageHeight="1100" math="0" shadow="0">
      <root>
        <mxCell id="0" />
        <mxCell id="1" parent="0" />
        <mxCell id="vFhIeEfv62ZOhZWVYI7D-1" value="начало" style="ellipse;whiteSpace=wrap;html=1;" vertex="1" parent="1">
          <mxGeometry x="354" y="160" width="86" height="50" as="geometry" />
        </mxCell>
        <mxCell id="vFhIeEfv62ZOhZWVYI7D-2" value="arr" style="shape=parallelogram;perimeter=parallelogramPerimeter;whiteSpace=wrap;html=1;fixedSize=1;" vertex="1" parent="1">
          <mxGeometry x="345.5" y="240" width="103" height="40" as="geometry" />
        </mxCell>
        <mxCell id="vFhIeEfv62ZOhZWVYI7D-3" value="if len(arr) == 0" style="rhombus;whiteSpace=wrap;html=1;" vertex="1" parent="1">
          <mxGeometry x="332" y="311" width="130" height="50" as="geometry" />
        </mxCell>
        <mxCell id="vFhIeEfv62ZOhZWVYI7D-4" value="" style="endArrow=classic;html=1;rounded=0;exitX=1;exitY=0.5;exitDx=0;exitDy=0;entryX=0.5;entryY=0;entryDx=0;entryDy=0;" edge="1" parent="1" source="vFhIeEfv62ZOhZWVYI7D-3" target="vFhIeEfv62ZOhZWVYI7D-6">
          <mxGeometry width="50" height="50" relative="1" as="geometry">
            <mxPoint x="380" y="550" as="sourcePoint" />
            <mxPoint x="508.5" y="370" as="targetPoint" />
          </mxGeometry>
        </mxCell>
        <mxCell id="vFhIeEfv62ZOhZWVYI7D-5" value="first_sign = None" style="rounded=0;whiteSpace=wrap;html=1;" vertex="1" parent="1">
          <mxGeometry x="201.5" y="361" width="100" height="34" as="geometry" />
        </mxCell>
        <mxCell id="vFhIeEfv62ZOhZWVYI7D-6" value="return false" style="shape=parallelogram;perimeter=parallelogramPerimeter;whiteSpace=wrap;html=1;fixedSize=1;" vertex="1" parent="1">
          <mxGeometry x="405.5" y="552.5" width="110" height="40" as="geometry" />
        </mxCell>
        <mxCell id="vFhIeEfv62ZOhZWVYI7D-7" value="" style="endArrow=classic;html=1;rounded=0;entryX=0.114;entryY=0.419;entryDx=0;entryDy=0;exitX=0.958;exitY=0.519;exitDx=0;exitDy=0;exitPerimeter=0;entryPerimeter=0;" edge="1" parent="1" target="vFhIeEfv62ZOhZWVYI7D-6">
          <mxGeometry width="50" height="50" relative="1" as="geometry">
            <mxPoint x="353.99800000000005" y="569.643" as="sourcePoint" />
            <mxPoint x="418.24" y="571.25" as="targetPoint" />
            <Array as="points">
              <mxPoint x="380" y="569" />
            </Array>
          </mxGeometry>
        </mxCell>
        <mxCell id="vFhIeEfv62ZOhZWVYI7D-8" value="if first_sign == -1" style="rhombus;whiteSpace=wrap;html=1;" vertex="1" parent="1">
          <mxGeometry x="155" y="606.25" width="130" height="47.5" as="geometry" />
        </mxCell>
        <mxCell id="vFhIeEfv62ZOhZWVYI7D-9" value="first_sign = arr[i] &amp;gt; 0" style="rounded=0;whiteSpace=wrap;html=1;" vertex="1" parent="1">
          <mxGeometry x="369" y="765" width="125" height="50" as="geometry" />
        </mxCell>
        <mxCell id="vFhIeEfv62ZOhZWVYI7D-10" value="if (arr[i] &amp;gt; 0) != first_sign&amp;nbsp;" style="rhombus;whiteSpace=wrap;html=1;" vertex="1" parent="1">
          <mxGeometry x="120" y="685" width="130" height="70" as="geometry" />
        </mxCell>
        <mxCell id="vFhIeEfv62ZOhZWVYI7D-11" value="" style="endArrow=classic;html=1;rounded=0;exitX=1;exitY=0.5;exitDx=0;exitDy=0;entryX=0.148;entryY=1.032;entryDx=0;entryDy=0;entryPerimeter=0;" edge="1" parent="1" source="vFhIeEfv62ZOhZWVYI7D-10" target="vFhIeEfv62ZOhZWVYI7D-6">
          <mxGeometry width="50" height="50" relative="1" as="geometry">
            <mxPoint x="425" y="580" as="sourcePoint" />
            <mxPoint x="400" y="610" as="targetPoint" />
            <Array as="points">
              <mxPoint x="420" y="720" />
            </Array>
          </mxGeometry>
        </mxCell>
        <mxCell id="vFhIeEfv62ZOhZWVYI7D-12" value="i += 1" style="rounded=0;whiteSpace=wrap;html=1;" vertex="1" parent="1">
          <mxGeometry x="211.5" y="930" width="100" height="40" as="geometry" />
        </mxCell>
        <mxCell id="vFhIeEfv62ZOhZWVYI7D-13" value="if i &amp;lt; len(arr)" style="rhombus;whiteSpace=wrap;html=1;" vertex="1" parent="1">
          <mxGeometry x="209" y="460" width="85" height="40" as="geometry" />
        </mxCell>
        <mxCell id="vFhIeEfv62ZOhZWVYI7D-14" value="" style="endArrow=classic;html=1;rounded=0;exitX=1;exitY=0.5;exitDx=0;exitDy=0;entryX=0.394;entryY=0.053;entryDx=0;entryDy=0;entryPerimeter=0;" edge="1" parent="1" source="vFhIeEfv62ZOhZWVYI7D-13" target="vFhIeEfv62ZOhZWVYI7D-57">
          <mxGeometry width="50" height="50" relative="1" as="geometry">
            <mxPoint x="170" y="570" as="sourcePoint" />
            <mxPoint x="315" y="550" as="targetPoint" />
          </mxGeometry>
        </mxCell>
        <mxCell id="vFhIeEfv62ZOhZWVYI7D-15" value="Да" style="text;html=1;align=center;verticalAlign=middle;whiteSpace=wrap;rounded=0;" vertex="1" parent="1">
          <mxGeometry x="270" y="450" width="20" height="20" as="geometry" />
        </mxCell>
        <mxCell id="vFhIeEfv62ZOhZWVYI7D-16" style="edgeStyle=orthogonalEdgeStyle;rounded=0;orthogonalLoop=1;jettySize=auto;html=1;exitX=0.5;exitY=1;exitDx=0;exitDy=0;" edge="1" parent="1" source="vFhIeEfv62ZOhZWVYI7D-15" target="vFhIeEfv62ZOhZWVYI7D-15">
          <mxGeometry relative="1" as="geometry" />
        </mxCell>
        <mxCell id="vFhIeEfv62ZOhZWVYI7D-17" value="return true" style="shape=parallelogram;perimeter=parallelogramPerimeter;whiteSpace=wrap;html=1;fixedSize=1;" vertex="1" parent="1">
          <mxGeometry x="35" y="546.25" width="95" height="40" as="geometry" />
        </mxCell>
        <mxCell id="vFhIeEfv62ZOhZWVYI7D-18" value="" style="endArrow=classic;html=1;rounded=0;exitX=0;exitY=0.5;exitDx=0;exitDy=0;entryX=0.672;entryY=-0.068;entryDx=0;entryDy=0;entryPerimeter=0;" edge="1" parent="1" source="vFhIeEfv62ZOhZWVYI7D-13" target="vFhIeEfv62ZOhZWVYI7D-17">
          <mxGeometry width="50" height="50" relative="1" as="geometry">
            <mxPoint x="170" y="570" as="sourcePoint" />
            <mxPoint x="220" y="520" as="targetPoint" />
            <Array as="points">
              <mxPoint x="100" y="480" />
            </Array>
          </mxGeometry>
        </mxCell>
        <mxCell id="vFhIeEfv62ZOhZWVYI7D-19" value="Нет" style="text;whiteSpace=wrap;html=1;" vertex="1" parent="1">
          <mxGeometry x="140" y="602.5" width="30" height="20" as="geometry" />
        </mxCell>
        <mxCell id="vFhIeEfv62ZOhZWVYI7D-20" value="" style="endArrow=classic;html=1;rounded=0;exitX=0.048;exitY=0.428;exitDx=0;exitDy=0;entryX=0.25;entryY=1;entryDx=0;entryDy=0;exitPerimeter=0;" edge="1" parent="1" source="vFhIeEfv62ZOhZWVYI7D-57">
          <mxGeometry width="50" height="50" relative="1" as="geometry">
            <mxPoint x="250" y="570" as="sourcePoint" />
            <mxPoint x="220.0000000000001" y="610.0000000000001" as="targetPoint" />
            <Array as="points">
              <mxPoint x="220" y="567" />
            </Array>
          </mxGeometry>
        </mxCell>
        <mxCell id="vFhIeEfv62ZOhZWVYI7D-21" value="" style="endArrow=classic;html=1;rounded=0;exitX=0;exitY=0.5;exitDx=0;exitDy=0;entryX=0.277;entryY=0.207;entryDx=0;entryDy=0;entryPerimeter=0;" edge="1" parent="1" source="vFhIeEfv62ZOhZWVYI7D-8" target="vFhIeEfv62ZOhZWVYI7D-10">
          <mxGeometry width="50" height="50" relative="1" as="geometry">
            <mxPoint x="120" y="830" as="sourcePoint" />
            <mxPoint x="170" y="780" as="targetPoint" />
          </mxGeometry>
        </mxCell>
        <mxCell id="vFhIeEfv62ZOhZWVYI7D-22" value="" style="endArrow=classic;html=1;rounded=0;entryX=0.096;entryY=-0.06;entryDx=0;entryDy=0;entryPerimeter=0;exitX=1;exitY=0.5;exitDx=0;exitDy=0;" edge="1" parent="1" source="vFhIeEfv62ZOhZWVYI7D-8" target="vFhIeEfv62ZOhZWVYI7D-9">
          <mxGeometry width="50" height="50" relative="1" as="geometry">
            <mxPoint x="480" y="840" as="sourcePoint" />
            <mxPoint x="530" y="790" as="targetPoint" />
            <Array as="points">
              <mxPoint x="380" y="630" />
            </Array>
          </mxGeometry>
        </mxCell>
        <mxCell id="vFhIeEfv62ZOhZWVYI7D-23" value="" style="endArrow=classic;html=1;rounded=0;exitX=0.5;exitY=1;exitDx=0;exitDy=0;entryX=1;entryY=0.5;entryDx=0;entryDy=0;" edge="1" parent="1" source="vFhIeEfv62ZOhZWVYI7D-9" target="vFhIeEfv62ZOhZWVYI7D-12">
          <mxGeometry width="50" height="50" relative="1" as="geometry">
            <mxPoint x="440" y="850" as="sourcePoint" />
            <mxPoint x="490" y="800" as="targetPoint" />
            <Array as="points">
              <mxPoint x="430" y="950" />
            </Array>
          </mxGeometry>
        </mxCell>
        <mxCell id="vFhIeEfv62ZOhZWVYI7D-24" value="" style="endArrow=classic;html=1;rounded=0;exitX=0;exitY=0.5;exitDx=0;exitDy=0;entryX=0;entryY=0.5;entryDx=0;entryDy=0;" edge="1" parent="1" source="vFhIeEfv62ZOhZWVYI7D-10" target="vFhIeEfv62ZOhZWVYI7D-12">
          <mxGeometry width="50" height="50" relative="1" as="geometry">
            <mxPoint x="100" y="730" as="sourcePoint" />
            <mxPoint x="180" y="890" as="targetPoint" />
            <Array as="points">
              <mxPoint x="120" y="950" />
            </Array>
          </mxGeometry>
        </mxCell>
        <mxCell id="vFhIeEfv62ZOhZWVYI7D-25" value="" style="endArrow=none;html=1;rounded=0;exitX=0.549;exitY=1.002;exitDx=0;exitDy=0;exitPerimeter=0;" edge="1" parent="1" source="vFhIeEfv62ZOhZWVYI7D-12">
          <mxGeometry width="50" height="50" relative="1" as="geometry">
            <mxPoint x="280" y="970" as="sourcePoint" />
            <mxPoint x="550" y="940" as="targetPoint" />
            <Array as="points">
              <mxPoint x="266" y="1000" />
              <mxPoint x="550" y="1000" />
            </Array>
          </mxGeometry>
        </mxCell>
        <mxCell id="vFhIeEfv62ZOhZWVYI7D-26" value="" style="endArrow=none;html=1;rounded=0;" edge="1" parent="1">
          <mxGeometry width="50" height="50" relative="1" as="geometry">
            <mxPoint x="550" y="940" as="sourcePoint" />
            <mxPoint x="550" y="440" as="targetPoint" />
          </mxGeometry>
        </mxCell>
        <mxCell id="vFhIeEfv62ZOhZWVYI7D-27" value="" style="endArrow=classic;html=1;rounded=0;" edge="1" parent="1">
          <mxGeometry width="50" height="50" relative="1" as="geometry">
            <mxPoint x="550" y="440" as="sourcePoint" />
            <mxPoint x="252" y="440" as="targetPoint" />
          </mxGeometry>
        </mxCell>
        <mxCell id="vFhIeEfv62ZOhZWVYI7D-28" value="" style="endArrow=classic;html=1;rounded=0;exitX=0.5;exitY=1;exitDx=0;exitDy=0;" edge="1" parent="1" source="vFhIeEfv62ZOhZWVYI7D-5">
          <mxGeometry width="50" height="50" relative="1" as="geometry">
            <mxPoint x="10" y="450" as="sourcePoint" />
            <mxPoint x="252" y="460" as="targetPoint" />
          </mxGeometry>
        </mxCell>
        <mxCell id="vFhIeEfv62ZOhZWVYI7D-29" value="" style="endArrow=classic;html=1;rounded=0;exitX=0;exitY=0.5;exitDx=0;exitDy=0;" edge="1" parent="1" source="vFhIeEfv62ZOhZWVYI7D-3">
          <mxGeometry width="50" height="50" relative="1" as="geometry">
            <mxPoint x="110" y="330" as="sourcePoint" />
            <mxPoint x="250" y="360" as="targetPoint" />
            <Array as="points">
              <mxPoint x="250" y="336" />
            </Array>
          </mxGeometry>
        </mxCell>
        <mxCell id="vFhIeEfv62ZOhZWVYI7D-30" value="" style="endArrow=classic;html=1;rounded=0;exitX=0.5;exitY=1;exitDx=0;exitDy=0;entryX=0.5;entryY=0;entryDx=0;entryDy=0;" edge="1" parent="1" source="vFhIeEfv62ZOhZWVYI7D-2" target="vFhIeEfv62ZOhZWVYI7D-3">
          <mxGeometry width="50" height="50" relative="1" as="geometry">
            <mxPoint x="50" y="230" as="sourcePoint" />
            <mxPoint x="100" y="180" as="targetPoint" />
          </mxGeometry>
        </mxCell>
        <mxCell id="vFhIeEfv62ZOhZWVYI7D-31" value="" style="endArrow=classic;html=1;rounded=0;exitX=0.5;exitY=1;exitDx=0;exitDy=0;" edge="1" parent="1" source="vFhIeEfv62ZOhZWVYI7D-1" target="vFhIeEfv62ZOhZWVYI7D-2">
          <mxGeometry width="50" height="50" relative="1" as="geometry">
            <mxPoint x="230" y="190" as="sourcePoint" />
            <mxPoint x="280" y="140" as="targetPoint" />
          </mxGeometry>
        </mxCell>
        <mxCell id="vFhIeEfv62ZOhZWVYI7D-32" value="&lt;h1 style=&quot;margin-top: 0px;&quot;&gt;Функция&amp;nbsp;check_same_sign(arr)&lt;/h1&gt;" style="text;html=1;whiteSpace=wrap;overflow=hidden;rounded=0;" vertex="1" parent="1">
          <mxGeometry x="240" y="110" width="371" height="80" as="geometry" />
        </mxCell>
        <mxCell id="vFhIeEfv62ZOhZWVYI7D-33" value="Начало" style="ellipse;whiteSpace=wrap;html=1;" vertex="1" parent="1">
          <mxGeometry x="1001.29" y="160" width="100" height="60" as="geometry" />
        </mxCell>
        <mxCell id="vFhIeEfv62ZOhZWVYI7D-34" value="found = false&lt;div&gt;i = 1&lt;/div&gt;&lt;div&gt;j = 1&lt;/div&gt;" style="rounded=0;whiteSpace=wrap;html=1;" vertex="1" parent="1">
          <mxGeometry x="991.29" y="320" width="110" height="50" as="geometry" />
        </mxCell>
        <mxCell id="vFhIeEfv62ZOhZWVYI7D-35" value="if&amp;nbsp;&lt;b&gt;check_same_sign&lt;/b&gt; (arrays[j])" style="rhombus;whiteSpace=wrap;html=1;" vertex="1" parent="1">
          <mxGeometry x="1056.29" y="527.5" width="245" height="89" as="geometry" />
        </mxCell>
        <mxCell id="vFhIeEfv62ZOhZWVYI7D-36" value="Вывод(&quot;Массив {i} состоит из элементов одного знака.&quot;)" style="shape=parallelogram;perimeter=parallelogramPerimeter;whiteSpace=wrap;html=1;fixedSize=1;" vertex="1" parent="1">
          <mxGeometry x="1261.29" y="622.5" width="210" height="60" as="geometry" />
        </mxCell>
        <mxCell id="vFhIeEfv62ZOhZWVYI7D-37" value="found = True" style="rounded=0;whiteSpace=wrap;html=1;" vertex="1" parent="1">
          <mxGeometry x="1301.29" y="732.5" width="120" height="40" as="geometry" />
        </mxCell>
        <mxCell id="vFhIeEfv62ZOhZWVYI7D-38" value="i += 1" style="rounded=0;whiteSpace=wrap;html=1;" vertex="1" parent="1">
          <mxGeometry x="996.29" y="835" width="120" height="60" as="geometry" />
        </mxCell>
        <mxCell id="vFhIeEfv62ZOhZWVYI7D-39" value="" style="endArrow=classic;html=1;rounded=0;exitX=0.454;exitY=0.957;exitDx=0;exitDy=0;exitPerimeter=0;" edge="1" parent="1" source="vFhIeEfv62ZOhZWVYI7D-36">
          <mxGeometry width="50" height="50" relative="1" as="geometry">
            <mxPoint x="1371.29" y="692.5" as="sourcePoint" />
            <mxPoint x="1356.29" y="729.5" as="targetPoint" />
          </mxGeometry>
        </mxCell>
        <mxCell id="vFhIeEfv62ZOhZWVYI7D-40" value="arrays" style="shape=parallelogram;perimeter=parallelogramPerimeter;whiteSpace=wrap;html=1;fixedSize=1;" vertex="1" parent="1">
          <mxGeometry x="994.79" y="250" width="103" height="40" as="geometry" />
        </mxCell>
        <mxCell id="vFhIeEfv62ZOhZWVYI7D-41" value="if j &amp;lt; len(arays)" style="rhombus;whiteSpace=wrap;html=1;" vertex="1" parent="1">
          <mxGeometry x="985.54" y="408" width="121.5" height="80" as="geometry" />
        </mxCell>
        <mxCell id="vFhIeEfv62ZOhZWVYI7D-42" value="if found == 0" style="rhombus;whiteSpace=wrap;html=1;" vertex="1" parent="1">
          <mxGeometry x="796.29" y="480" width="133" height="70" as="geometry" />
        </mxCell>
        <mxCell id="vFhIeEfv62ZOhZWVYI7D-43" value="Вывод(&quot;Нет массивов, состоящих из элементов одного знака.&quot;)" style="shape=parallelogram;perimeter=parallelogramPerimeter;whiteSpace=wrap;html=1;fixedSize=1;" vertex="1" parent="1">
          <mxGeometry x="766.29" y="650" width="260" height="100" as="geometry" />
        </mxCell>
        <mxCell id="vFhIeEfv62ZOhZWVYI7D-44" value="" style="endArrow=classic;html=1;rounded=0;exitX=0.5;exitY=1;exitDx=0;exitDy=0;" edge="1" parent="1" source="vFhIeEfv62ZOhZWVYI7D-37">
          <mxGeometry width="50" height="50" relative="1" as="geometry">
            <mxPoint x="1416.29" y="820" as="sourcePoint" />
            <mxPoint x="1056.29" y="800" as="targetPoint" />
            <Array as="points">
              <mxPoint x="1361.29" y="800" />
            </Array>
          </mxGeometry>
        </mxCell>
        <mxCell id="vFhIeEfv62ZOhZWVYI7D-45" value="" style="endArrow=classic;html=1;rounded=0;exitX=0;exitY=0.5;exitDx=0;exitDy=0;entryX=0.5;entryY=0;entryDx=0;entryDy=0;" edge="1" parent="1" source="vFhIeEfv62ZOhZWVYI7D-35" target="vFhIeEfv62ZOhZWVYI7D-38">
          <mxGeometry width="50" height="50" relative="1" as="geometry">
            <mxPoint x="926.29" y="790" as="sourcePoint" />
            <mxPoint x="976.29" y="740" as="targetPoint" />
          </mxGeometry>
        </mxCell>
        <mxCell id="vFhIeEfv62ZOhZWVYI7D-46" value="" style="endArrow=classic;html=1;rounded=0;entryX=0.437;entryY=0.082;entryDx=0;entryDy=0;entryPerimeter=0;exitX=1;exitY=0.5;exitDx=0;exitDy=0;" edge="1" parent="1" source="vFhIeEfv62ZOhZWVYI7D-35" target="vFhIeEfv62ZOhZWVYI7D-36">
          <mxGeometry width="50" height="50" relative="1" as="geometry">
            <mxPoint x="1316.29" y="580" as="sourcePoint" />
            <mxPoint x="1486.29" y="850" as="targetPoint" />
            <Array as="points">
              <mxPoint x="1352.29" y="573" />
            </Array>
          </mxGeometry>
        </mxCell>
        <mxCell id="vFhIeEfv62ZOhZWVYI7D-47" value="" style="endArrow=none;html=1;rounded=0;exitX=1;exitY=0.5;exitDx=0;exitDy=0;" edge="1" parent="1">
          <mxGeometry width="50" height="50" relative="1" as="geometry">
            <mxPoint x="1117.2900000000002" y="870.9999999999999" as="sourcePoint" />
            <mxPoint x="1147.29" y="871" as="targetPoint" />
          </mxGeometry>
        </mxCell>
        <mxCell id="vFhIeEfv62ZOhZWVYI7D-48" value="" style="endArrow=none;html=1;rounded=0;" edge="1" parent="1">
          <mxGeometry width="50" height="50" relative="1" as="geometry">
            <mxPoint x="1496.29" y="870" as="sourcePoint" />
            <mxPoint x="1496.29" y="390" as="targetPoint" />
          </mxGeometry>
        </mxCell>
        <mxCell id="vFhIeEfv62ZOhZWVYI7D-49" value="" style="endArrow=classic;html=1;rounded=0;" edge="1" parent="1">
          <mxGeometry width="50" height="50" relative="1" as="geometry">
            <mxPoint x="1496.29" y="390" as="sourcePoint" />
            <mxPoint x="1046.29" y="390" as="targetPoint" />
          </mxGeometry>
        </mxCell>
        <mxCell id="vFhIeEfv62ZOhZWVYI7D-50" value="" style="endArrow=classic;html=1;rounded=0;exitX=0.5;exitY=1;exitDx=0;exitDy=0;entryX=0.5;entryY=0;entryDx=0;entryDy=0;" edge="1" parent="1" source="vFhIeEfv62ZOhZWVYI7D-34" target="vFhIeEfv62ZOhZWVYI7D-41">
          <mxGeometry width="50" height="50" relative="1" as="geometry">
            <mxPoint x="1256.29" y="360" as="sourcePoint" />
            <mxPoint x="1306.29" y="310" as="targetPoint" />
          </mxGeometry>
        </mxCell>
        <mxCell id="vFhIeEfv62ZOhZWVYI7D-51" value="" style="endArrow=classic;html=1;rounded=0;exitX=0.5;exitY=1;exitDx=0;exitDy=0;entryX=0.5;entryY=0;entryDx=0;entryDy=0;" edge="1" parent="1" source="vFhIeEfv62ZOhZWVYI7D-40" target="vFhIeEfv62ZOhZWVYI7D-34">
          <mxGeometry width="50" height="50" relative="1" as="geometry">
            <mxPoint x="1146.29" y="290" as="sourcePoint" />
            <mxPoint x="1196.29" y="240" as="targetPoint" />
          </mxGeometry>
        </mxCell>
        <mxCell id="vFhIeEfv62ZOhZWVYI7D-52" value="" style="endArrow=classic;html=1;rounded=0;exitX=0.5;exitY=1;exitDx=0;exitDy=0;" edge="1" parent="1" source="vFhIeEfv62ZOhZWVYI7D-33">
          <mxGeometry width="50" height="50" relative="1" as="geometry">
            <mxPoint x="1106.29" y="230" as="sourcePoint" />
            <mxPoint x="1051.29" y="250" as="targetPoint" />
          </mxGeometry>
        </mxCell>
        <mxCell id="vFhIeEfv62ZOhZWVYI7D-53" value="" style="endArrow=classic;html=1;rounded=0;exitX=0;exitY=0.5;exitDx=0;exitDy=0;entryX=0.5;entryY=0;entryDx=0;entryDy=0;" edge="1" parent="1" source="vFhIeEfv62ZOhZWVYI7D-41" target="vFhIeEfv62ZOhZWVYI7D-42">
          <mxGeometry width="50" height="50" relative="1" as="geometry">
            <mxPoint x="816.29" y="320" as="sourcePoint" />
            <mxPoint x="866.29" y="270" as="targetPoint" />
            <Array as="points">
              <mxPoint x="862.29" y="450" />
            </Array>
          </mxGeometry>
        </mxCell>
        <mxCell id="vFhIeEfv62ZOhZWVYI7D-54" value="" style="endArrow=classic;html=1;rounded=0;exitX=1;exitY=0.5;exitDx=0;exitDy=0;entryX=0.808;entryY=0.02;entryDx=0;entryDy=0;entryPerimeter=0;" edge="1" parent="1" source="vFhIeEfv62ZOhZWVYI7D-42" target="vFhIeEfv62ZOhZWVYI7D-43">
          <mxGeometry width="50" height="50" relative="1" as="geometry">
            <mxPoint x="806.29" y="900" as="sourcePoint" />
            <mxPoint x="866.29" y="570" as="targetPoint" />
            <Array as="points">
              <mxPoint x="976.29" y="515" />
            </Array>
          </mxGeometry>
        </mxCell>
        <mxCell id="vFhIeEfv62ZOhZWVYI7D-55" value="" style="endArrow=classic;html=1;rounded=0;exitX=1;exitY=0.5;exitDx=0;exitDy=0;entryX=0.49;entryY=-0.015;entryDx=0;entryDy=0;entryPerimeter=0;" edge="1" parent="1" source="vFhIeEfv62ZOhZWVYI7D-41" target="vFhIeEfv62ZOhZWVYI7D-35">
          <mxGeometry width="50" height="50" relative="1" as="geometry">
            <mxPoint x="1106.29" y="520" as="sourcePoint" />
            <mxPoint x="1156.29" y="470" as="targetPoint" />
            <Array as="points">
              <mxPoint x="1176.29" y="448" />
            </Array>
          </mxGeometry>
        </mxCell>
        <mxCell id="vFhIeEfv62ZOhZWVYI7D-56" value="" style="endArrow=none;html=1;rounded=0;" edge="1" parent="1">
          <mxGeometry width="50" height="50" relative="1" as="geometry">
            <mxPoint x="1147.29" y="871" as="sourcePoint" />
            <mxPoint x="1497.29" y="871" as="targetPoint" />
          </mxGeometry>
        </mxCell>
        <mxCell id="vFhIeEfv62ZOhZWVYI7D-57" value="if arr[i] == 0" style="rhombus;whiteSpace=wrap;html=1;" vertex="1" parent="1">
          <mxGeometry x="254.5" y="546.5" width="101" height="47" as="geometry" />
        </mxCell>
        <mxCell id="vFhIeEfv62ZOhZWVYI7D-58" value="Конец" style="ellipse;whiteSpace=wrap;html=1;" vertex="1" parent="1">
          <mxGeometry x="211.5" y="1030" width="80" height="46" as="geometry" />
        </mxCell>
        <mxCell id="vFhIeEfv62ZOhZWVYI7D-59" value="" style="endArrow=classic;html=1;rounded=0;exitX=0.5;exitY=1;exitDx=0;exitDy=0;entryX=0;entryY=0.5;entryDx=0;entryDy=0;" edge="1" parent="1" source="vFhIeEfv62ZOhZWVYI7D-17" target="vFhIeEfv62ZOhZWVYI7D-58">
          <mxGeometry width="50" height="50" relative="1" as="geometry">
            <mxPoint x="30" y="540" as="sourcePoint" />
            <mxPoint x="220" y="1140" as="targetPoint" />
            <Array as="points">
              <mxPoint x="80" y="1050" />
            </Array>
          </mxGeometry>
        </mxCell>
        <mxCell id="vFhIeEfv62ZOhZWVYI7D-60" value="" style="endArrow=classic;html=1;rounded=0;exitX=1;exitY=0.5;exitDx=0;exitDy=0;entryX=1;entryY=0.5;entryDx=0;entryDy=0;" edge="1" parent="1" source="vFhIeEfv62ZOhZWVYI7D-6" target="vFhIeEfv62ZOhZWVYI7D-58">
          <mxGeometry width="50" height="50" relative="1" as="geometry">
            <mxPoint x="590" y="740" as="sourcePoint" />
            <mxPoint x="80" y="850" as="targetPoint" />
            <Array as="points">
              <mxPoint x="581" y="574" />
              <mxPoint x="580" y="1053" />
            </Array>
          </mxGeometry>
        </mxCell>
        <mxCell id="vFhIeEfv62ZOhZWVYI7D-61" value="" style="endArrow=classic;html=1;rounded=0;exitX=0;exitY=0.5;exitDx=0;exitDy=0;entryX=0.375;entryY=0.063;entryDx=0;entryDy=0;entryPerimeter=0;" edge="1" parent="1" source="vFhIeEfv62ZOhZWVYI7D-42" target="vFhIeEfv62ZOhZWVYI7D-62">
          <mxGeometry width="50" height="50" relative="1" as="geometry">
            <mxPoint x="656.29" y="630" as="sourcePoint" />
            <mxPoint x="696.29" y="850" as="targetPoint" />
            <Array as="points">
              <mxPoint x="746.29" y="515" />
              <mxPoint x="746.29" y="690" />
            </Array>
          </mxGeometry>
        </mxCell>
        <mxCell id="vFhIeEfv62ZOhZWVYI7D-62" value="Конец" style="ellipse;whiteSpace=wrap;html=1;" vertex="1" parent="1">
          <mxGeometry x="701.29" y="840" width="120" height="80" as="geometry" />
        </mxCell>
        <mxCell id="vFhIeEfv62ZOhZWVYI7D-63" value="" style="endArrow=classic;html=1;rounded=0;exitX=0.719;exitY=0.99;exitDx=0;exitDy=0;exitPerimeter=0;entryX=0.97;entryY=0.539;entryDx=0;entryDy=0;entryPerimeter=0;" edge="1" parent="1" source="vFhIeEfv62ZOhZWVYI7D-43" target="vFhIeEfv62ZOhZWVYI7D-62">
          <mxGeometry width="50" height="50" relative="1" as="geometry">
            <mxPoint x="886.29" y="850" as="sourcePoint" />
            <mxPoint x="736.29" y="800" as="targetPoint" />
            <Array as="points">
              <mxPoint x="953.29" y="883" />
            </Array>
          </mxGeometry>
        </mxCell>
        <mxCell id="vFhIeEfv62ZOhZWVYI7D-64" value="&lt;h1 style=&quot;margin-top: 0px;&quot;&gt;Функция&amp;nbsp;process_arrays(arrays)&lt;/h1&gt;" style="text;html=1;whiteSpace=wrap;overflow=hidden;rounded=0;" vertex="1" parent="1">
          <mxGeometry x="906.29" y="110" width="403.71" height="80" as="geometry" />
        </mxCell>
        <mxCell id="vFhIeEfv62ZOhZWVYI7D-65" value="Нет" style="text;whiteSpace=wrap;html=1;" vertex="1" parent="1">
          <mxGeometry x="181.5" y="458" width="30" height="20" as="geometry" />
        </mxCell>
        <mxCell id="vFhIeEfv62ZOhZWVYI7D-66" value="Нет" style="text;whiteSpace=wrap;html=1;" vertex="1" parent="1">
          <mxGeometry x="275" y="313" width="30" height="20" as="geometry" />
        </mxCell>
        <mxCell id="vFhIeEfv62ZOhZWVYI7D-67" value="Нет" style="text;whiteSpace=wrap;html=1;" vertex="1" parent="1">
          <mxGeometry x="110" y="690" width="30" height="20" as="geometry" />
        </mxCell>
        <mxCell id="vFhIeEfv62ZOhZWVYI7D-68" value="Нет" style="text;whiteSpace=wrap;html=1;" vertex="1" parent="1">
          <mxGeometry x="220" y="545" width="30" height="20" as="geometry" />
        </mxCell>
        <mxCell id="vFhIeEfv62ZOhZWVYI7D-69" value="Да" style="text;html=1;align=center;verticalAlign=middle;whiteSpace=wrap;rounded=0;" vertex="1" parent="1">
          <mxGeometry x="369" y="546.5" width="20" height="20" as="geometry" />
        </mxCell>
        <mxCell id="vFhIeEfv62ZOhZWVYI7D-70" value="Да" style="text;html=1;align=center;verticalAlign=middle;whiteSpace=wrap;rounded=0;" vertex="1" parent="1">
          <mxGeometry x="295" y="606.25" width="20" height="20" as="geometry" />
        </mxCell>
        <mxCell id="vFhIeEfv62ZOhZWVYI7D-71" value="Да" style="text;html=1;align=center;verticalAlign=middle;whiteSpace=wrap;rounded=0;" vertex="1" parent="1">
          <mxGeometry x="250" y="690" width="20" height="20" as="geometry" />
        </mxCell>
        <mxCell id="vFhIeEfv62ZOhZWVYI7D-72" value="Да" style="text;html=1;align=center;verticalAlign=middle;whiteSpace=wrap;rounded=0;" vertex="1" parent="1">
          <mxGeometry x="470" y="311" width="20" height="20" as="geometry" />
        </mxCell>
        <mxCell id="vFhIeEfv62ZOhZWVYI7D-73" value="Да" style="text;html=1;align=center;verticalAlign=middle;whiteSpace=wrap;rounded=0;" vertex="1" parent="1">
          <mxGeometry x="1107.04" y="425" width="20" height="20" as="geometry" />
        </mxCell>
        <mxCell id="vFhIeEfv62ZOhZWVYI7D-74" value="Да" style="text;html=1;align=center;verticalAlign=middle;whiteSpace=wrap;rounded=0;" vertex="1" parent="1">
          <mxGeometry x="929.29" y="490" width="20" height="20" as="geometry" />
        </mxCell>
        <mxCell id="vFhIeEfv62ZOhZWVYI7D-75" value="Да" style="text;html=1;align=center;verticalAlign=middle;whiteSpace=wrap;rounded=0;" vertex="1" parent="1">
          <mxGeometry x="1310" y="552.5" width="20" height="20" as="geometry" />
        </mxCell>
        <mxCell id="vFhIeEfv62ZOhZWVYI7D-76" value="Нет" style="text;whiteSpace=wrap;html=1;" vertex="1" parent="1">
          <mxGeometry x="766.29" y="490" width="30" height="20" as="geometry" />
        </mxCell>
        <mxCell id="vFhIeEfv62ZOhZWVYI7D-77" value="Нет" style="text;whiteSpace=wrap;html=1;" vertex="1" parent="1">
          <mxGeometry x="940" y="425" width="30" height="20" as="geometry" />
        </mxCell>
        <mxCell id="vFhIeEfv62ZOhZWVYI7D-78" value="Нет" style="text;whiteSpace=wrap;html=1;" vertex="1" parent="1">
          <mxGeometry x="1041.29" y="545" width="30" height="20" as="geometry" />
        </mxCell>
      </root>
    </mxGraphModel>
  </diagram>
  <diagram name="Графы" id="UL8ZfbC7ENs-gewoDhGo">
    <mxGraphModel dx="3822" dy="2358" grid="1" gridSize="10" guides="1" tooltips="1" connect="1" arrows="1" fold="1" page="1" pageScale="1" pageWidth="2339" pageHeight="3300" math="0" shadow="0">
      <root>
        <mxCell id="0" />
        <mxCell id="1" parent="0" />
        <mxCell id="_oQI6SgmB9FpHTkvuggo-1" style="edgeStyle=orthogonalEdgeStyle;rounded=0;orthogonalLoop=1;jettySize=auto;html=1;entryX=0.5;entryY=0;entryDx=0;entryDy=0;" parent="1" source="x7JZYd5VgC3F-J8ZX4Ac-1" target="x7JZYd5VgC3F-J8ZX4Ac-2" edge="1">
          <mxGeometry relative="1" as="geometry" />
        </mxCell>
        <mxCell id="x7JZYd5VgC3F-J8ZX4Ac-1" value="вх.данные (arr)" style="ellipse;whiteSpace=wrap;html=1;" parent="1" vertex="1">
          <mxGeometry x="60" y="30" width="80" height="60" as="geometry" />
        </mxCell>
        <mxCell id="_oQI6SgmB9FpHTkvuggo-7" style="edgeStyle=orthogonalEdgeStyle;rounded=0;orthogonalLoop=1;jettySize=auto;html=1;entryX=0.5;entryY=0;entryDx=0;entryDy=0;" parent="1" source="x7JZYd5VgC3F-J8ZX4Ac-2" target="x7JZYd5VgC3F-J8ZX4Ac-4" edge="1">
          <mxGeometry relative="1" as="geometry" />
        </mxCell>
        <mxCell id="x7JZYd5VgC3F-J8ZX4Ac-2" value="first_sign" style="ellipse;whiteSpace=wrap;html=1;" parent="1" vertex="1">
          <mxGeometry x="60" y="170" width="80" height="60" as="geometry" />
        </mxCell>
        <mxCell id="_oQI6SgmB9FpHTkvuggo-9" style="edgeStyle=orthogonalEdgeStyle;rounded=0;orthogonalLoop=1;jettySize=auto;html=1;" parent="1" source="x7JZYd5VgC3F-J8ZX4Ac-4" target="_oQI6SgmB9FpHTkvuggo-2" edge="1">
          <mxGeometry relative="1" as="geometry">
            <Array as="points">
              <mxPoint x="40" y="310" />
              <mxPoint x="40" y="1010" />
            </Array>
          </mxGeometry>
        </mxCell>
        <mxCell id="_oQI6SgmB9FpHTkvuggo-10" style="edgeStyle=orthogonalEdgeStyle;rounded=0;orthogonalLoop=1;jettySize=auto;html=1;entryX=0;entryY=0.5;entryDx=0;entryDy=0;" parent="1" source="x7JZYd5VgC3F-J8ZX4Ac-4" target="_oQI6SgmB9FpHTkvuggo-5" edge="1">
          <mxGeometry relative="1" as="geometry" />
        </mxCell>
        <mxCell id="x7JZYd5VgC3F-J8ZX4Ac-4" value="i&amp;lt;len(arr)" style="ellipse;whiteSpace=wrap;html=1;" parent="1" vertex="1">
          <mxGeometry x="60" y="280" width="80" height="60" as="geometry" />
        </mxCell>
        <mxCell id="_oQI6SgmB9FpHTkvuggo-2" value="Вывод" style="ellipse;whiteSpace=wrap;html=1;" parent="1" vertex="1">
          <mxGeometry x="370" y="980" width="80" height="60" as="geometry" />
        </mxCell>
        <mxCell id="_oQI6SgmB9FpHTkvuggo-26" style="edgeStyle=orthogonalEdgeStyle;rounded=0;orthogonalLoop=1;jettySize=auto;html=1;entryX=1;entryY=0.5;entryDx=0;entryDy=0;" parent="1" source="_oQI6SgmB9FpHTkvuggo-5" target="_oQI6SgmB9FpHTkvuggo-2" edge="1">
          <mxGeometry relative="1" as="geometry">
            <Array as="points">
              <mxPoint x="680" y="410" />
              <mxPoint x="680" y="1010" />
            </Array>
          </mxGeometry>
        </mxCell>
        <mxCell id="_oQI6SgmB9FpHTkvuggo-5" value="arr[i] == 0" style="ellipse;whiteSpace=wrap;html=1;" parent="1" vertex="1">
          <mxGeometry x="353" y="380" width="80" height="60" as="geometry" />
        </mxCell>
        <mxCell id="_oQI6SgmB9FpHTkvuggo-15" style="edgeStyle=orthogonalEdgeStyle;rounded=0;orthogonalLoop=1;jettySize=auto;html=1;" parent="1" source="_oQI6SgmB9FpHTkvuggo-6" target="_oQI6SgmB9FpHTkvuggo-14" edge="1">
          <mxGeometry relative="1" as="geometry" />
        </mxCell>
        <mxCell id="_oQI6SgmB9FpHTkvuggo-19" style="edgeStyle=orthogonalEdgeStyle;rounded=0;orthogonalLoop=1;jettySize=auto;html=1;" parent="1" source="_oQI6SgmB9FpHTkvuggo-6" target="_oQI6SgmB9FpHTkvuggo-18" edge="1">
          <mxGeometry relative="1" as="geometry" />
        </mxCell>
        <mxCell id="_oQI6SgmB9FpHTkvuggo-6" value="first_sign == -1" style="ellipse;whiteSpace=wrap;html=1;" parent="1" vertex="1">
          <mxGeometry x="343" y="640" width="90" height="60" as="geometry" />
        </mxCell>
        <mxCell id="_oQI6SgmB9FpHTkvuggo-13" style="edgeStyle=orthogonalEdgeStyle;rounded=0;orthogonalLoop=1;jettySize=auto;html=1;entryX=0.5;entryY=0;entryDx=0;entryDy=0;" parent="1" source="_oQI6SgmB9FpHTkvuggo-5" target="_oQI6SgmB9FpHTkvuggo-6" edge="1">
          <mxGeometry relative="1" as="geometry">
            <Array as="points">
              <mxPoint x="388" y="464" />
              <mxPoint x="388" y="464" />
            </Array>
          </mxGeometry>
        </mxCell>
        <mxCell id="_oQI6SgmB9FpHTkvuggo-20" style="edgeStyle=orthogonalEdgeStyle;rounded=0;orthogonalLoop=1;jettySize=auto;html=1;entryX=0.5;entryY=0;entryDx=0;entryDy=0;" parent="1" source="_oQI6SgmB9FpHTkvuggo-14" target="_oQI6SgmB9FpHTkvuggo-17" edge="1">
          <mxGeometry relative="1" as="geometry" />
        </mxCell>
        <mxCell id="_oQI6SgmB9FpHTkvuggo-14" value="arr [i] &amp;gt; 0 != first_sign" style="ellipse;whiteSpace=wrap;html=1;" parent="1" vertex="1">
          <mxGeometry x="157" y="710" width="140" height="60" as="geometry" />
        </mxCell>
        <mxCell id="_oQI6SgmB9FpHTkvuggo-23" style="edgeStyle=orthogonalEdgeStyle;rounded=0;orthogonalLoop=1;jettySize=auto;html=1;entryX=1;entryY=0.5;entryDx=0;entryDy=0;" parent="1" source="_oQI6SgmB9FpHTkvuggo-17" target="x7JZYd5VgC3F-J8ZX4Ac-2" edge="1">
          <mxGeometry relative="1" as="geometry">
            <mxPoint x="740" y="140" as="targetPoint" />
            <Array as="points">
              <mxPoint x="650" y="910" />
              <mxPoint x="650" y="200" />
            </Array>
          </mxGeometry>
        </mxCell>
        <mxCell id="_oQI6SgmB9FpHTkvuggo-17" value="i +=1" style="ellipse;whiteSpace=wrap;html=1;" parent="1" vertex="1">
          <mxGeometry x="343" y="880" width="80" height="60" as="geometry" />
        </mxCell>
        <mxCell id="_oQI6SgmB9FpHTkvuggo-21" style="edgeStyle=orthogonalEdgeStyle;rounded=0;orthogonalLoop=1;jettySize=auto;html=1;entryX=0.5;entryY=0;entryDx=0;entryDy=0;" parent="1" source="_oQI6SgmB9FpHTkvuggo-18" target="_oQI6SgmB9FpHTkvuggo-17" edge="1">
          <mxGeometry relative="1" as="geometry" />
        </mxCell>
        <mxCell id="_oQI6SgmB9FpHTkvuggo-18" value="first_sign = arr[i]&amp;gt;0" style="ellipse;whiteSpace=wrap;html=1;" parent="1" vertex="1">
          <mxGeometry x="473" y="710" width="140" height="60" as="geometry" />
        </mxCell>
        <mxCell id="GmTWDtXwigRf9Leh2dHl-2" style="edgeStyle=orthogonalEdgeStyle;rounded=0;orthogonalLoop=1;jettySize=auto;html=1;entryX=0.5;entryY=0;entryDx=0;entryDy=0;" parent="1" source="dkTPZERx4GnQN_n20zsJ-1" target="dkTPZERx4GnQN_n20zsJ-2" edge="1">
          <mxGeometry relative="1" as="geometry" />
        </mxCell>
        <mxCell id="dkTPZERx4GnQN_n20zsJ-1" value="вх.данные (arrays)" style="ellipse;whiteSpace=wrap;html=1;" parent="1" vertex="1">
          <mxGeometry x="1320" y="20" width="80" height="60" as="geometry" />
        </mxCell>
        <mxCell id="GmTWDtXwigRf9Leh2dHl-3" style="edgeStyle=orthogonalEdgeStyle;rounded=0;orthogonalLoop=1;jettySize=auto;html=1;" parent="1" source="dkTPZERx4GnQN_n20zsJ-2" target="GmTWDtXwigRf9Leh2dHl-1" edge="1">
          <mxGeometry relative="1" as="geometry" />
        </mxCell>
        <mxCell id="dkTPZERx4GnQN_n20zsJ-2" value="found = false&lt;div&gt;i = 1&lt;/div&gt;&lt;div&gt;j = 1&lt;/div&gt;" style="ellipse;whiteSpace=wrap;html=1;" parent="1" vertex="1">
          <mxGeometry x="1305" y="110" width="110" height="70" as="geometry" />
        </mxCell>
        <mxCell id="GmTWDtXwigRf9Leh2dHl-5" style="edgeStyle=orthogonalEdgeStyle;rounded=0;orthogonalLoop=1;jettySize=auto;html=1;entryX=0.5;entryY=0;entryDx=0;entryDy=0;" parent="1" source="GmTWDtXwigRf9Leh2dHl-1" target="GmTWDtXwigRf9Leh2dHl-4" edge="1">
          <mxGeometry relative="1" as="geometry" />
        </mxCell>
        <mxCell id="GmTWDtXwigRf9Leh2dHl-7" style="edgeStyle=orthogonalEdgeStyle;rounded=0;orthogonalLoop=1;jettySize=auto;html=1;entryX=0.5;entryY=0;entryDx=0;entryDy=0;" parent="1" source="GmTWDtXwigRf9Leh2dHl-1" target="GmTWDtXwigRf9Leh2dHl-6" edge="1">
          <mxGeometry relative="1" as="geometry" />
        </mxCell>
        <mxCell id="GmTWDtXwigRf9Leh2dHl-1" value="j&amp;lt;len(arrays)" style="ellipse;whiteSpace=wrap;html=1;" parent="1" vertex="1">
          <mxGeometry x="1312.5" y="210" width="95" height="60" as="geometry" />
        </mxCell>
        <mxCell id="NCfmbex1ADN8gCLHrR8r-7" style="edgeStyle=orthogonalEdgeStyle;rounded=0;orthogonalLoop=1;jettySize=auto;html=1;" parent="1" target="NCfmbex1ADN8gCLHrR8r-11" edge="1">
          <mxGeometry relative="1" as="geometry">
            <mxPoint x="1102.5" y="520" as="targetPoint" />
            <mxPoint x="1170" y="300" as="sourcePoint" />
            <Array as="points">
              <mxPoint x="1130" y="300" />
            </Array>
          </mxGeometry>
        </mxCell>
        <mxCell id="GmTWDtXwigRf9Leh2dHl-4" value="found == 0" style="ellipse;whiteSpace=wrap;html=1;" parent="1" vertex="1">
          <mxGeometry x="1170" y="270" width="95" height="60" as="geometry" />
        </mxCell>
        <mxCell id="NCfmbex1ADN8gCLHrR8r-14" style="edgeStyle=orthogonalEdgeStyle;rounded=0;orthogonalLoop=1;jettySize=auto;html=1;entryX=0.608;entryY=0.025;entryDx=0;entryDy=0;entryPerimeter=0;" parent="1" source="GmTWDtXwigRf9Leh2dHl-6" target="NCfmbex1ADN8gCLHrR8r-12" edge="1">
          <mxGeometry relative="1" as="geometry">
            <mxPoint x="1740" y="380" as="targetPoint" />
            <Array as="points">
              <mxPoint x="1743" y="290" />
            </Array>
          </mxGeometry>
        </mxCell>
        <mxCell id="NCfmbex1ADN8gCLHrR8r-16" style="edgeStyle=orthogonalEdgeStyle;rounded=0;orthogonalLoop=1;jettySize=auto;html=1;" parent="1" source="GmTWDtXwigRf9Leh2dHl-6" edge="1">
          <mxGeometry relative="1" as="geometry">
            <mxPoint x="1450" y="600" as="targetPoint" />
          </mxGeometry>
        </mxCell>
        <mxCell id="GmTWDtXwigRf9Leh2dHl-6" value="check_same_sign(arrays[j])" style="ellipse;whiteSpace=wrap;html=1;" parent="1" vertex="1">
          <mxGeometry x="1490" y="270" width="190" height="60" as="geometry" />
        </mxCell>
        <mxCell id="NCfmbex1ADN8gCLHrR8r-21" style="edgeStyle=orthogonalEdgeStyle;rounded=0;orthogonalLoop=1;jettySize=auto;html=1;entryX=1;entryY=0.5;entryDx=0;entryDy=0;" parent="1" source="NCfmbex1ADN8gCLHrR8r-1" target="NCfmbex1ADN8gCLHrR8r-11" edge="1">
          <mxGeometry relative="1" as="geometry">
            <mxPoint x="1285" y="760" as="targetPoint" />
            <Array as="points">
              <mxPoint x="1285" y="740" />
            </Array>
          </mxGeometry>
        </mxCell>
        <mxCell id="NCfmbex1ADN8gCLHrR8r-1" value="Вывод" style="ellipse;whiteSpace=wrap;html=1;" parent="1" vertex="1">
          <mxGeometry x="1230" y="370" width="110" height="60" as="geometry" />
        </mxCell>
        <mxCell id="NCfmbex1ADN8gCLHrR8r-5" style="edgeStyle=orthogonalEdgeStyle;rounded=0;orthogonalLoop=1;jettySize=auto;html=1;exitX=1;exitY=0.5;exitDx=0;exitDy=0;entryX=0.564;entryY=-0.05;entryDx=0;entryDy=0;entryPerimeter=0;" parent="1" source="GmTWDtXwigRf9Leh2dHl-4" target="NCfmbex1ADN8gCLHrR8r-1" edge="1">
          <mxGeometry relative="1" as="geometry" />
        </mxCell>
        <mxCell id="NCfmbex1ADN8gCLHrR8r-11" value="Конец" style="ellipse;whiteSpace=wrap;html=1;" parent="1" vertex="1">
          <mxGeometry x="1070" y="700" width="120" height="80" as="geometry" />
        </mxCell>
        <mxCell id="NCfmbex1ADN8gCLHrR8r-15" style="edgeStyle=orthogonalEdgeStyle;rounded=0;orthogonalLoop=1;jettySize=auto;html=1;entryX=0.5;entryY=0;entryDx=0;entryDy=0;" parent="1" source="NCfmbex1ADN8gCLHrR8r-12" target="NCfmbex1ADN8gCLHrR8r-13" edge="1">
          <mxGeometry relative="1" as="geometry" />
        </mxCell>
        <mxCell id="NCfmbex1ADN8gCLHrR8r-12" value="Вывод" style="ellipse;whiteSpace=wrap;html=1;" parent="1" vertex="1">
          <mxGeometry x="1670" y="390" width="120" height="80" as="geometry" />
        </mxCell>
        <mxCell id="NCfmbex1ADN8gCLHrR8r-18" style="edgeStyle=orthogonalEdgeStyle;rounded=0;orthogonalLoop=1;jettySize=auto;html=1;" parent="1" source="NCfmbex1ADN8gCLHrR8r-13" edge="1">
          <mxGeometry relative="1" as="geometry">
            <mxPoint x="1450" y="550" as="targetPoint" />
          </mxGeometry>
        </mxCell>
        <mxCell id="NCfmbex1ADN8gCLHrR8r-13" value="found = true" style="ellipse;whiteSpace=wrap;html=1;" parent="1" vertex="1">
          <mxGeometry x="1670" y="510" width="120" height="80" as="geometry" />
        </mxCell>
        <mxCell id="NCfmbex1ADN8gCLHrR8r-19" style="edgeStyle=orthogonalEdgeStyle;rounded=0;orthogonalLoop=1;jettySize=auto;html=1;" parent="1" edge="1">
          <mxGeometry relative="1" as="geometry">
            <mxPoint x="1360" y="190" as="targetPoint" />
            <mxPoint x="1460" y="634.5" as="sourcePoint" />
            <Array as="points">
              <mxPoint x="1460" y="635.5" />
              <mxPoint x="1881" y="635.5" />
            </Array>
          </mxGeometry>
        </mxCell>
        <mxCell id="NCfmbex1ADN8gCLHrR8r-17" value="i += 1" style="ellipse;whiteSpace=wrap;html=1;" parent="1" vertex="1">
          <mxGeometry x="1390" y="600" width="120" height="80" as="geometry" />
        </mxCell>
        <mxCell id="myU2o1NKTlW5jtNNG2BT-1" value="Text" style="text;html=1;align=center;verticalAlign=middle;whiteSpace=wrap;rounded=0;" parent="1" vertex="1">
          <mxGeometry x="410" y="270" width="60" height="30" as="geometry" />
        </mxCell>
        <mxCell id="YQu9h-Cif9WKtylXmcmK-1" style="edgeStyle=orthogonalEdgeStyle;rounded=0;orthogonalLoop=1;jettySize=auto;html=1;entryX=0.5;entryY=0;entryDx=0;entryDy=0;" parent="1" source="YQu9h-Cif9WKtylXmcmK-2" target="YQu9h-Cif9WKtylXmcmK-4" edge="1">
          <mxGeometry relative="1" as="geometry" />
        </mxCell>
        <mxCell id="YQu9h-Cif9WKtylXmcmK-2" value="вх.данные (arr)" style="ellipse;whiteSpace=wrap;html=1;" parent="1" vertex="1">
          <mxGeometry x="593" y="1150" width="80" height="60" as="geometry" />
        </mxCell>
        <mxCell id="YQu9h-Cif9WKtylXmcmK-3" style="edgeStyle=orthogonalEdgeStyle;rounded=0;orthogonalLoop=1;jettySize=auto;html=1;entryX=0.5;entryY=0;entryDx=0;entryDy=0;" parent="1" source="YQu9h-Cif9WKtylXmcmK-4" target="YQu9h-Cif9WKtylXmcmK-7" edge="1">
          <mxGeometry relative="1" as="geometry" />
        </mxCell>
        <mxCell id="YQu9h-Cif9WKtylXmcmK-4" value="first_sign" style="ellipse;whiteSpace=wrap;html=1;" parent="1" vertex="1">
          <mxGeometry x="593" y="1260" width="80" height="60" as="geometry" />
        </mxCell>
        <mxCell id="YQu9h-Cif9WKtylXmcmK-6" style="rounded=0;orthogonalLoop=1;jettySize=auto;html=1;entryX=0.5;entryY=0;entryDx=0;entryDy=0;" parent="1" source="YQu9h-Cif9WKtylXmcmK-7" target="YQu9h-Cif9WKtylXmcmK-10" edge="1">
          <mxGeometry relative="1" as="geometry" />
        </mxCell>
        <mxCell id="YQu9h-Cif9WKtylXmcmK-22" style="rounded=0;orthogonalLoop=1;jettySize=auto;html=1;curved=1;exitX=0;exitY=0.5;exitDx=0;exitDy=0;entryX=0;entryY=0.5;entryDx=0;entryDy=0;" parent="1" source="YQu9h-Cif9WKtylXmcmK-7" target="YQu9h-Cif9WKtylXmcmK-8" edge="1">
          <mxGeometry relative="1" as="geometry">
            <mxPoint x="590" y="2250" as="targetPoint" />
            <Array as="points">
              <mxPoint x="390" y="1410" />
              <mxPoint x="130" y="2090" />
            </Array>
          </mxGeometry>
        </mxCell>
        <mxCell id="YQu9h-Cif9WKtylXmcmK-7" value="i&amp;lt;len(arr)" style="ellipse;whiteSpace=wrap;html=1;" parent="1" vertex="1">
          <mxGeometry x="593" y="1390" width="80" height="60" as="geometry" />
        </mxCell>
        <mxCell id="YQu9h-Cif9WKtylXmcmK-8" value="Вывод" style="ellipse;whiteSpace=wrap;html=1;" parent="1" vertex="1">
          <mxGeometry x="593" y="2230" width="80" height="60" as="geometry" />
        </mxCell>
        <mxCell id="YQu9h-Cif9WKtylXmcmK-9" style="rounded=0;orthogonalLoop=1;jettySize=auto;html=1;exitX=1;exitY=0.5;exitDx=0;exitDy=0;entryX=1;entryY=0.5;entryDx=0;entryDy=0;edgeStyle=orthogonalEdgeStyle;curved=1;" parent="1" source="YQu9h-Cif9WKtylXmcmK-10" target="YQu9h-Cif9WKtylXmcmK-8" edge="1">
          <mxGeometry relative="1" as="geometry">
            <Array as="points">
              <mxPoint x="1110" y="1590" />
              <mxPoint x="1110" y="2260" />
            </Array>
            <mxPoint x="760" y="2270" as="targetPoint" />
          </mxGeometry>
        </mxCell>
        <mxCell id="YQu9h-Cif9WKtylXmcmK-10" value="arr[i] == 0" style="ellipse;whiteSpace=wrap;html=1;" parent="1" vertex="1">
          <mxGeometry x="593" y="1560" width="80" height="60" as="geometry" />
        </mxCell>
        <mxCell id="YQu9h-Cif9WKtylXmcmK-11" style="rounded=0;orthogonalLoop=1;jettySize=auto;html=1;exitX=0;exitY=0.5;exitDx=0;exitDy=0;curved=1;entryX=0.5;entryY=0;entryDx=0;entryDy=0;" parent="1" source="YQu9h-Cif9WKtylXmcmK-13" target="YQu9h-Cif9WKtylXmcmK-16" edge="1">
          <mxGeometry relative="1" as="geometry">
            <mxPoint x="526" y="1760" as="sourcePoint" />
            <mxPoint x="496" y="1903" as="targetPoint" />
            <Array as="points">
              <mxPoint x="460" y="1850" />
            </Array>
          </mxGeometry>
        </mxCell>
        <mxCell id="YQu9h-Cif9WKtylXmcmK-12" style="edgeStyle=orthogonalEdgeStyle;rounded=0;orthogonalLoop=1;jettySize=auto;html=1;curved=1;" parent="1" source="YQu9h-Cif9WKtylXmcmK-13" target="YQu9h-Cif9WKtylXmcmK-20" edge="1">
          <mxGeometry relative="1" as="geometry" />
        </mxCell>
        <mxCell id="YQu9h-Cif9WKtylXmcmK-13" value="first_sign == -1" style="ellipse;whiteSpace=wrap;html=1;" parent="1" vertex="1">
          <mxGeometry x="583" y="1790" width="90" height="60" as="geometry" />
        </mxCell>
        <mxCell id="YQu9h-Cif9WKtylXmcmK-14" style="edgeStyle=orthogonalEdgeStyle;rounded=0;orthogonalLoop=1;jettySize=auto;html=1;entryX=0.5;entryY=0;entryDx=0;entryDy=0;" parent="1" source="YQu9h-Cif9WKtylXmcmK-10" target="YQu9h-Cif9WKtylXmcmK-13" edge="1">
          <mxGeometry relative="1" as="geometry">
            <Array as="points">
              <mxPoint x="628" y="1614" />
              <mxPoint x="628" y="1614" />
            </Array>
          </mxGeometry>
        </mxCell>
        <mxCell id="YQu9h-Cif9WKtylXmcmK-25" style="rounded=0;orthogonalLoop=1;jettySize=auto;html=1;" parent="1" source="YQu9h-Cif9WKtylXmcmK-16" target="YQu9h-Cif9WKtylXmcmK-18" edge="1">
          <mxGeometry relative="1" as="geometry" />
        </mxCell>
        <mxCell id="YQu9h-Cif9WKtylXmcmK-16" value="arr [i] &amp;gt; 0 != first_sign" style="ellipse;whiteSpace=wrap;html=1;" parent="1" vertex="1">
          <mxGeometry x="397" y="1900" width="140" height="60" as="geometry" />
        </mxCell>
        <mxCell id="YQu9h-Cif9WKtylXmcmK-17" style="rounded=0;orthogonalLoop=1;jettySize=auto;html=1;entryX=1;entryY=0.5;entryDx=0;entryDy=0;curved=1;" parent="1" source="YQu9h-Cif9WKtylXmcmK-18" target="YQu9h-Cif9WKtylXmcmK-4" edge="1">
          <mxGeometry relative="1" as="geometry">
            <mxPoint x="980" y="1290" as="targetPoint" />
            <Array as="points">
              <mxPoint x="1220" y="2010" />
              <mxPoint x="1120" y="1290" />
            </Array>
          </mxGeometry>
        </mxCell>
        <mxCell id="YQu9h-Cif9WKtylXmcmK-18" value="i +=1" style="ellipse;whiteSpace=wrap;html=1;" parent="1" vertex="1">
          <mxGeometry x="583" y="2030" width="80" height="60" as="geometry" />
        </mxCell>
        <mxCell id="YQu9h-Cif9WKtylXmcmK-23" style="rounded=0;orthogonalLoop=1;jettySize=auto;html=1;" parent="1" source="YQu9h-Cif9WKtylXmcmK-20" target="YQu9h-Cif9WKtylXmcmK-18" edge="1">
          <mxGeometry relative="1" as="geometry" />
        </mxCell>
        <mxCell id="YQu9h-Cif9WKtylXmcmK-20" value="first_sign = arr[i]&amp;gt;0" style="ellipse;whiteSpace=wrap;html=1;" parent="1" vertex="1">
          <mxGeometry x="720" y="1900" width="140" height="60" as="geometry" />
        </mxCell>
        <mxCell id="YQu9h-Cif9WKtylXmcmK-27" value="R1" style="text;html=1;align=center;verticalAlign=middle;whiteSpace=wrap;rounded=0;fontSize=29;" parent="1" vertex="1">
          <mxGeometry x="800" y="1500" width="60" height="30" as="geometry" />
        </mxCell>
        <mxCell id="YQu9h-Cif9WKtylXmcmK-28" value="R2" style="text;html=1;align=center;verticalAlign=middle;whiteSpace=wrap;rounded=0;fontSize=29;" parent="1" vertex="1">
          <mxGeometry x="337" y="1730" width="60" height="30" as="geometry" />
        </mxCell>
        <mxCell id="YQu9h-Cif9WKtylXmcmK-29" value="R3" style="text;html=1;align=center;verticalAlign=middle;whiteSpace=wrap;rounded=0;fontSize=29;" parent="1" vertex="1">
          <mxGeometry x="820" y="1770" width="60" height="30" as="geometry" />
        </mxCell>
        <mxCell id="YQu9h-Cif9WKtylXmcmK-30" value="R4" style="text;html=1;align=center;verticalAlign=middle;whiteSpace=wrap;rounded=0;fontSize=29;" parent="1" vertex="1">
          <mxGeometry x="598" y="1910" width="60" height="30" as="geometry" />
        </mxCell>
        <mxCell id="YQu9h-Cif9WKtylXmcmK-31" value="R5" style="text;html=1;align=center;verticalAlign=middle;whiteSpace=wrap;rounded=0;fontSize=29;" parent="1" vertex="1">
          <mxGeometry x="603" y="2160" width="60" height="30" as="geometry" />
        </mxCell>
        <mxCell id="YQu9h-Cif9WKtylXmcmK-32" style="edgeStyle=orthogonalEdgeStyle;rounded=0;orthogonalLoop=1;jettySize=auto;html=1;entryX=0.5;entryY=0;entryDx=0;entryDy=0;" parent="1" source="YQu9h-Cif9WKtylXmcmK-33" target="YQu9h-Cif9WKtylXmcmK-35" edge="1">
          <mxGeometry relative="1" as="geometry" />
        </mxCell>
        <mxCell id="YQu9h-Cif9WKtylXmcmK-33" value="вх.данные (arrays)" style="ellipse;whiteSpace=wrap;html=1;" parent="1" vertex="1">
          <mxGeometry x="1650" y="1160" width="80" height="60" as="geometry" />
        </mxCell>
        <mxCell id="YQu9h-Cif9WKtylXmcmK-34" style="edgeStyle=orthogonalEdgeStyle;rounded=0;orthogonalLoop=1;jettySize=auto;html=1;" parent="1" source="YQu9h-Cif9WKtylXmcmK-35" target="YQu9h-Cif9WKtylXmcmK-38" edge="1">
          <mxGeometry relative="1" as="geometry" />
        </mxCell>
        <mxCell id="YQu9h-Cif9WKtylXmcmK-35" value="found = false&lt;div&gt;i = 1&lt;/div&gt;&lt;div&gt;j = 1&lt;/div&gt;" style="ellipse;whiteSpace=wrap;html=1;" parent="1" vertex="1">
          <mxGeometry x="1635" y="1250" width="110" height="70" as="geometry" />
        </mxCell>
        <mxCell id="YQu9h-Cif9WKtylXmcmK-36" style="rounded=0;orthogonalLoop=1;jettySize=auto;html=1;entryX=0.5;entryY=0;entryDx=0;entryDy=0;curved=1;" parent="1" source="YQu9h-Cif9WKtylXmcmK-38" target="YQu9h-Cif9WKtylXmcmK-40" edge="1">
          <mxGeometry relative="1" as="geometry">
            <Array as="points">
              <mxPoint x="1580" y="1380" />
            </Array>
          </mxGeometry>
        </mxCell>
        <mxCell id="YQu9h-Cif9WKtylXmcmK-37" style="rounded=0;orthogonalLoop=1;jettySize=auto;html=1;entryX=0.5;entryY=0;entryDx=0;entryDy=0;curved=1;" parent="1" source="YQu9h-Cif9WKtylXmcmK-38" target="YQu9h-Cif9WKtylXmcmK-43" edge="1">
          <mxGeometry relative="1" as="geometry">
            <Array as="points">
              <mxPoint x="1860" y="1380" />
            </Array>
          </mxGeometry>
        </mxCell>
        <mxCell id="YQu9h-Cif9WKtylXmcmK-38" value="j&amp;lt;len(arrays)" style="ellipse;whiteSpace=wrap;html=1;" parent="1" vertex="1">
          <mxGeometry x="1642.5" y="1350" width="95" height="60" as="geometry" />
        </mxCell>
        <mxCell id="YQu9h-Cif9WKtylXmcmK-39" style="rounded=0;orthogonalLoop=1;jettySize=auto;html=1;curved=1;entryX=0.5;entryY=0;entryDx=0;entryDy=0;" parent="1" target="YQu9h-Cif9WKtylXmcmK-47" edge="1">
          <mxGeometry relative="1" as="geometry">
            <mxPoint x="1432.5" y="1660" as="targetPoint" />
            <mxPoint x="1500" y="1440" as="sourcePoint" />
            <Array as="points">
              <mxPoint x="1360" y="1570" />
            </Array>
          </mxGeometry>
        </mxCell>
        <mxCell id="YQu9h-Cif9WKtylXmcmK-40" value="found == 0" style="ellipse;whiteSpace=wrap;html=1;" parent="1" vertex="1">
          <mxGeometry x="1500" y="1410" width="95" height="60" as="geometry" />
        </mxCell>
        <mxCell id="YQu9h-Cif9WKtylXmcmK-42" style="rounded=0;orthogonalLoop=1;jettySize=auto;html=1;entryX=0.5;entryY=0;entryDx=0;entryDy=0;curved=1;" parent="1" source="YQu9h-Cif9WKtylXmcmK-43" target="YQu9h-Cif9WKtylXmcmK-53" edge="1">
          <mxGeometry relative="1" as="geometry">
            <mxPoint x="1780" y="1740" as="targetPoint" />
            <Array as="points">
              <mxPoint x="1780" y="1580" />
            </Array>
          </mxGeometry>
        </mxCell>
        <mxCell id="YQu9h-Cif9WKtylXmcmK-43" value="check_same_sign(arrays[j])" style="ellipse;whiteSpace=wrap;html=1;" parent="1" vertex="1">
          <mxGeometry x="1820" y="1410" width="190" height="60" as="geometry" />
        </mxCell>
        <mxCell id="YQu9h-Cif9WKtylXmcmK-44" style="edgeStyle=orthogonalEdgeStyle;rounded=0;orthogonalLoop=1;jettySize=auto;html=1;entryX=1;entryY=0.5;entryDx=0;entryDy=0;exitX=0.5;exitY=1;exitDx=0;exitDy=0;curved=1;" parent="1" source="YQu9h-Cif9WKtylXmcmK-45" target="YQu9h-Cif9WKtylXmcmK-47" edge="1">
          <mxGeometry relative="1" as="geometry">
            <mxPoint x="1615" y="1900" as="targetPoint" />
            <Array as="points">
              <mxPoint x="1645" y="1880" />
            </Array>
          </mxGeometry>
        </mxCell>
        <mxCell id="YQu9h-Cif9WKtylXmcmK-45" value="Вывод" style="ellipse;whiteSpace=wrap;html=1;" parent="1" vertex="1">
          <mxGeometry x="1590" y="1620" width="110" height="60" as="geometry" />
        </mxCell>
        <mxCell id="YQu9h-Cif9WKtylXmcmK-46" style="edgeStyle=orthogonalEdgeStyle;rounded=0;orthogonalLoop=1;jettySize=auto;html=1;exitX=1;exitY=0.5;exitDx=0;exitDy=0;entryX=0.564;entryY=-0.05;entryDx=0;entryDy=0;entryPerimeter=0;curved=1;" parent="1" source="YQu9h-Cif9WKtylXmcmK-40" target="YQu9h-Cif9WKtylXmcmK-45" edge="1">
          <mxGeometry relative="1" as="geometry" />
        </mxCell>
        <mxCell id="YQu9h-Cif9WKtylXmcmK-47" value="Конец" style="ellipse;whiteSpace=wrap;html=1;" parent="1" vertex="1">
          <mxGeometry x="1390" y="1840" width="120" height="80" as="geometry" />
        </mxCell>
        <mxCell id="YQu9h-Cif9WKtylXmcmK-48" style="edgeStyle=orthogonalEdgeStyle;rounded=0;orthogonalLoop=1;jettySize=auto;html=1;entryX=0.5;entryY=0;entryDx=0;entryDy=0;" parent="1" source="YQu9h-Cif9WKtylXmcmK-49" target="YQu9h-Cif9WKtylXmcmK-51" edge="1">
          <mxGeometry relative="1" as="geometry" />
        </mxCell>
        <mxCell id="YQu9h-Cif9WKtylXmcmK-49" value="Вывод" style="ellipse;whiteSpace=wrap;html=1;" parent="1" vertex="1">
          <mxGeometry x="2020" y="1560" width="120" height="80" as="geometry" />
        </mxCell>
        <mxCell id="4H8dU7I2gveGz73t7sF8-2" style="rounded=0;orthogonalLoop=1;jettySize=auto;html=1;entryX=1;entryY=0;entryDx=0;entryDy=0;" parent="1" source="YQu9h-Cif9WKtylXmcmK-51" target="YQu9h-Cif9WKtylXmcmK-53" edge="1">
          <mxGeometry relative="1" as="geometry">
            <mxPoint x="1850" y="1800" as="targetPoint" />
          </mxGeometry>
        </mxCell>
        <mxCell id="YQu9h-Cif9WKtylXmcmK-51" value="found = true" style="ellipse;whiteSpace=wrap;html=1;" parent="1" vertex="1">
          <mxGeometry x="2020" y="1680" width="120" height="80" as="geometry" />
        </mxCell>
        <mxCell id="4H8dU7I2gveGz73t7sF8-1" style="rounded=0;orthogonalLoop=1;jettySize=auto;html=1;curved=1;" parent="1" source="YQu9h-Cif9WKtylXmcmK-53" target="YQu9h-Cif9WKtylXmcmK-38" edge="1">
          <mxGeometry relative="1" as="geometry">
            <mxPoint x="1690" y="1330" as="targetPoint" />
            <Array as="points">
              <mxPoint x="2260" y="1910" />
              <mxPoint x="2280" y="1290" />
            </Array>
          </mxGeometry>
        </mxCell>
        <mxCell id="YQu9h-Cif9WKtylXmcmK-53" value="i += 1" style="ellipse;whiteSpace=wrap;html=1;" parent="1" vertex="1">
          <mxGeometry x="1720" y="1800" width="120" height="80" as="geometry" />
        </mxCell>
        <mxCell id="YQu9h-Cif9WKtylXmcmK-55" style="rounded=0;orthogonalLoop=1;jettySize=auto;html=1;entryX=0.355;entryY=-0.015;entryDx=0;entryDy=0;entryPerimeter=0;" parent="1" source="YQu9h-Cif9WKtylXmcmK-43" target="YQu9h-Cif9WKtylXmcmK-49" edge="1">
          <mxGeometry relative="1" as="geometry">
            <mxPoint x="2080" y="1560" as="targetPoint" />
            <mxPoint x="2005" y="1430" as="sourcePoint" />
          </mxGeometry>
        </mxCell>
        <mxCell id="4H8dU7I2gveGz73t7sF8-3" value="R1" style="text;html=1;align=center;verticalAlign=middle;whiteSpace=wrap;rounded=0;fontSize=29;" parent="1" vertex="1">
          <mxGeometry x="1500" y="1560" width="60" height="30" as="geometry" />
        </mxCell>
        <mxCell id="4H8dU7I2gveGz73t7sF8-4" value="R2" style="text;html=1;align=center;verticalAlign=middle;whiteSpace=wrap;rounded=0;fontSize=29;" parent="1" vertex="1">
          <mxGeometry x="1890" y="1610" width="60" height="30" as="geometry" />
        </mxCell>
        <mxCell id="4H8dU7I2gveGz73t7sF8-5" value="R3" style="text;html=1;align=center;verticalAlign=middle;whiteSpace=wrap;rounded=0;fontSize=29;" parent="1" vertex="1">
          <mxGeometry x="2150" y="1550" width="60" height="30" as="geometry" />
        </mxCell>
        <mxCell id="wpwsulh6VQc71lMGxQDp-1" value="&lt;h1 style=&quot;margin-top: 0px;&quot;&gt;Функция&amp;nbsp;process_arrays(arrays)&lt;/h1&gt;" style="text;html=1;whiteSpace=wrap;overflow=hidden;rounded=0;" vertex="1" parent="1">
          <mxGeometry x="1546.29" y="1110" width="403.71" height="80" as="geometry" />
        </mxCell>
        <mxCell id="wpwsulh6VQc71lMGxQDp-2" value="&lt;h1 style=&quot;margin-top: 0px;&quot;&gt;Функция&amp;nbsp;check_same_sign(arr)&lt;/h1&gt;" style="text;html=1;whiteSpace=wrap;overflow=hidden;rounded=0;" vertex="1" parent="1">
          <mxGeometry x="460" y="1090" width="371" height="80" as="geometry" />
        </mxCell>
        <mxCell id="wpwsulh6VQc71lMGxQDp-3" value="&lt;h1 style=&quot;margin-top: 0px;&quot;&gt;Функция&amp;nbsp;check_same_sign(arr)&lt;/h1&gt;" style="text;html=1;whiteSpace=wrap;overflow=hidden;rounded=0;" vertex="1" parent="1">
          <mxGeometry x="224.5" width="371" height="80" as="geometry" />
        </mxCell>
        <mxCell id="wpwsulh6VQc71lMGxQDp-4" value="&lt;h1 style=&quot;margin-top: 0px;&quot;&gt;Функция&amp;nbsp;process_arrays(arrays)&lt;/h1&gt;" style="text;html=1;whiteSpace=wrap;overflow=hidden;rounded=0;" vertex="1" parent="1">
          <mxGeometry x="1436.29" width="403.71" height="80" as="geometry" />
        </mxCell>
      </root>
    </mxGraphModel>
  </diagram>
  <diagram id="SsVVcqYw85CPWlmcF_ET" name="Граф 1">
    <mxGraphModel dx="2389" dy="374" grid="1" gridSize="10" guides="1" tooltips="1" connect="1" arrows="1" fold="1" page="1" pageScale="1" pageWidth="850" pageHeight="1100" math="0" shadow="0">
      <root>
        <mxCell id="0" />
        <mxCell id="1" parent="0" />
        <mxCell id="NfxwwBregV6ilm60lZet-28" style="edgeStyle=orthogonalEdgeStyle;rounded=0;orthogonalLoop=1;jettySize=auto;html=1;entryX=0.5;entryY=0;entryDx=0;entryDy=0;" edge="1" parent="1" source="NfxwwBregV6ilm60lZet-54" target="NfxwwBregV6ilm60lZet-31">
          <mxGeometry relative="1" as="geometry" />
        </mxCell>
        <mxCell id="NfxwwBregV6ilm60lZet-29" value="вх.данные (arr)" style="ellipse;whiteSpace=wrap;html=1;" vertex="1" parent="1">
          <mxGeometry x="603" y="1180" width="80" height="60" as="geometry" />
        </mxCell>
        <mxCell id="NfxwwBregV6ilm60lZet-30" style="edgeStyle=orthogonalEdgeStyle;rounded=0;orthogonalLoop=1;jettySize=auto;html=1;entryX=0.5;entryY=0;entryDx=0;entryDy=0;" edge="1" parent="1" source="NfxwwBregV6ilm60lZet-31" target="NfxwwBregV6ilm60lZet-34">
          <mxGeometry relative="1" as="geometry" />
        </mxCell>
        <mxCell id="NfxwwBregV6ilm60lZet-31" value="first_sign" style="ellipse;whiteSpace=wrap;html=1;" vertex="1" parent="1">
          <mxGeometry x="603" y="1350" width="80" height="60" as="geometry" />
        </mxCell>
        <mxCell id="NfxwwBregV6ilm60lZet-32" style="rounded=0;orthogonalLoop=1;jettySize=auto;html=1;entryX=0.5;entryY=0;entryDx=0;entryDy=0;" edge="1" parent="1" source="NfxwwBregV6ilm60lZet-34" target="NfxwwBregV6ilm60lZet-37">
          <mxGeometry relative="1" as="geometry" />
        </mxCell>
        <mxCell id="NfxwwBregV6ilm60lZet-33" style="rounded=0;orthogonalLoop=1;jettySize=auto;html=1;curved=1;exitX=0;exitY=0.5;exitDx=0;exitDy=0;" edge="1" parent="1" source="NfxwwBregV6ilm60lZet-34" target="NfxwwBregV6ilm60lZet-35">
          <mxGeometry relative="1" as="geometry">
            <mxPoint x="603" y="2320" as="targetPoint" />
            <Array as="points">
              <mxPoint x="390" y="1470" />
              <mxPoint x="140" y="2100" />
            </Array>
          </mxGeometry>
        </mxCell>
        <mxCell id="NfxwwBregV6ilm60lZet-34" value="i&amp;lt;len(arr)" style="ellipse;whiteSpace=wrap;html=1;" vertex="1" parent="1">
          <mxGeometry x="603" y="1450" width="80" height="60" as="geometry" />
        </mxCell>
        <mxCell id="NfxwwBregV6ilm60lZet-35" value="Вывод" style="ellipse;whiteSpace=wrap;html=1;" vertex="1" parent="1">
          <mxGeometry x="603" y="2290" width="80" height="60" as="geometry" />
        </mxCell>
        <mxCell id="NfxwwBregV6ilm60lZet-36" style="rounded=0;orthogonalLoop=1;jettySize=auto;html=1;exitX=1;exitY=0.5;exitDx=0;exitDy=0;entryX=1;entryY=0.5;entryDx=0;entryDy=0;edgeStyle=orthogonalEdgeStyle;curved=1;" edge="1" parent="1" source="NfxwwBregV6ilm60lZet-37" target="NfxwwBregV6ilm60lZet-35">
          <mxGeometry relative="1" as="geometry">
            <Array as="points">
              <mxPoint x="1120" y="1650" />
              <mxPoint x="1120" y="2320" />
            </Array>
            <mxPoint x="770" y="2330" as="targetPoint" />
          </mxGeometry>
        </mxCell>
        <mxCell id="NfxwwBregV6ilm60lZet-37" value="arr[i] == 0" style="ellipse;whiteSpace=wrap;html=1;" vertex="1" parent="1">
          <mxGeometry x="603" y="1620" width="80" height="60" as="geometry" />
        </mxCell>
        <mxCell id="NfxwwBregV6ilm60lZet-38" style="rounded=0;orthogonalLoop=1;jettySize=auto;html=1;exitX=0;exitY=0.5;exitDx=0;exitDy=0;curved=1;entryX=0.5;entryY=0;entryDx=0;entryDy=0;" edge="1" parent="1" source="NfxwwBregV6ilm60lZet-40" target="NfxwwBregV6ilm60lZet-43">
          <mxGeometry relative="1" as="geometry">
            <mxPoint x="536" y="1820" as="sourcePoint" />
            <mxPoint x="506" y="1963" as="targetPoint" />
            <Array as="points">
              <mxPoint x="470" y="1910" />
            </Array>
          </mxGeometry>
        </mxCell>
        <mxCell id="NfxwwBregV6ilm60lZet-39" style="edgeStyle=orthogonalEdgeStyle;rounded=0;orthogonalLoop=1;jettySize=auto;html=1;curved=1;" edge="1" parent="1" source="NfxwwBregV6ilm60lZet-40" target="NfxwwBregV6ilm60lZet-47">
          <mxGeometry relative="1" as="geometry" />
        </mxCell>
        <mxCell id="NfxwwBregV6ilm60lZet-40" value="first_sign == -1" style="ellipse;whiteSpace=wrap;html=1;" vertex="1" parent="1">
          <mxGeometry x="593" y="1850" width="90" height="60" as="geometry" />
        </mxCell>
        <mxCell id="NfxwwBregV6ilm60lZet-41" style="edgeStyle=orthogonalEdgeStyle;rounded=0;orthogonalLoop=1;jettySize=auto;html=1;entryX=0.5;entryY=0;entryDx=0;entryDy=0;" edge="1" parent="1" source="NfxwwBregV6ilm60lZet-37" target="NfxwwBregV6ilm60lZet-40">
          <mxGeometry relative="1" as="geometry">
            <Array as="points">
              <mxPoint x="638" y="1674" />
              <mxPoint x="638" y="1674" />
            </Array>
          </mxGeometry>
        </mxCell>
        <mxCell id="NfxwwBregV6ilm60lZet-42" style="rounded=0;orthogonalLoop=1;jettySize=auto;html=1;" edge="1" parent="1" source="NfxwwBregV6ilm60lZet-43" target="NfxwwBregV6ilm60lZet-45">
          <mxGeometry relative="1" as="geometry" />
        </mxCell>
        <mxCell id="NfxwwBregV6ilm60lZet-43" value="arr [i] &amp;gt; 0 != first_sign" style="ellipse;whiteSpace=wrap;html=1;" vertex="1" parent="1">
          <mxGeometry x="407" y="1960" width="140" height="60" as="geometry" />
        </mxCell>
        <mxCell id="NfxwwBregV6ilm60lZet-44" style="rounded=0;orthogonalLoop=1;jettySize=auto;html=1;curved=1;" edge="1" parent="1" source="NfxwwBregV6ilm60lZet-45" target="NfxwwBregV6ilm60lZet-34">
          <mxGeometry relative="1" as="geometry">
            <mxPoint x="990" y="1350" as="targetPoint" />
            <Array as="points">
              <mxPoint x="1230" y="2070" />
              <mxPoint x="1060" y="1450" />
            </Array>
          </mxGeometry>
        </mxCell>
        <mxCell id="NfxwwBregV6ilm60lZet-45" value="i +=1" style="ellipse;whiteSpace=wrap;html=1;" vertex="1" parent="1">
          <mxGeometry x="593" y="2090" width="80" height="60" as="geometry" />
        </mxCell>
        <mxCell id="NfxwwBregV6ilm60lZet-46" style="rounded=0;orthogonalLoop=1;jettySize=auto;html=1;" edge="1" parent="1" source="NfxwwBregV6ilm60lZet-47" target="NfxwwBregV6ilm60lZet-45">
          <mxGeometry relative="1" as="geometry" />
        </mxCell>
        <mxCell id="NfxwwBregV6ilm60lZet-47" value="first_sign = arr[i]&amp;gt;0" style="ellipse;whiteSpace=wrap;html=1;" vertex="1" parent="1">
          <mxGeometry x="730" y="1960" width="140" height="60" as="geometry" />
        </mxCell>
        <mxCell id="NfxwwBregV6ilm60lZet-48" value="R1" style="text;html=1;align=center;verticalAlign=middle;whiteSpace=wrap;rounded=0;fontSize=29;" vertex="1" parent="1">
          <mxGeometry x="810" y="1560" width="60" height="30" as="geometry" />
        </mxCell>
        <mxCell id="NfxwwBregV6ilm60lZet-49" value="R2" style="text;html=1;align=center;verticalAlign=middle;whiteSpace=wrap;rounded=0;fontSize=29;" vertex="1" parent="1">
          <mxGeometry x="347" y="1820" width="60" height="30" as="geometry" />
        </mxCell>
        <mxCell id="NfxwwBregV6ilm60lZet-50" value="R3" style="text;html=1;align=center;verticalAlign=middle;whiteSpace=wrap;rounded=0;fontSize=29;" vertex="1" parent="1">
          <mxGeometry x="830" y="1830" width="60" height="30" as="geometry" />
        </mxCell>
        <mxCell id="NfxwwBregV6ilm60lZet-51" value="R4" style="text;html=1;align=center;verticalAlign=middle;whiteSpace=wrap;rounded=0;fontSize=29;" vertex="1" parent="1">
          <mxGeometry x="608" y="1970" width="60" height="30" as="geometry" />
        </mxCell>
        <mxCell id="NfxwwBregV6ilm60lZet-52" value="R5" style="text;html=1;align=center;verticalAlign=middle;whiteSpace=wrap;rounded=0;fontSize=29;" vertex="1" parent="1">
          <mxGeometry x="613" y="2220" width="60" height="30" as="geometry" />
        </mxCell>
        <mxCell id="NfxwwBregV6ilm60lZet-53" value="" style="edgeStyle=orthogonalEdgeStyle;rounded=0;orthogonalLoop=1;jettySize=auto;html=1;entryX=0.5;entryY=0;entryDx=0;entryDy=0;" edge="1" parent="1" source="NfxwwBregV6ilm60lZet-29" target="NfxwwBregV6ilm60lZet-54">
          <mxGeometry relative="1" as="geometry">
            <mxPoint x="643" y="1270" as="sourcePoint" />
            <mxPoint x="643" y="1350" as="targetPoint" />
          </mxGeometry>
        </mxCell>
        <mxCell id="aqvcJGFv9cbu1GrJa5O3-1" style="rounded=0;orthogonalLoop=1;jettySize=auto;html=1;entryX=0;entryY=0.5;entryDx=0;entryDy=0;curved=1;" edge="1" parent="1" source="NfxwwBregV6ilm60lZet-54" target="NfxwwBregV6ilm60lZet-35">
          <mxGeometry relative="1" as="geometry">
            <mxPoint x="530" y="2280" as="targetPoint" />
            <Array as="points">
              <mxPoint x="-420" y="1910" />
            </Array>
          </mxGeometry>
        </mxCell>
        <mxCell id="NfxwwBregV6ilm60lZet-54" value="len(arr) == 0" style="ellipse;whiteSpace=wrap;html=1;" vertex="1" parent="1">
          <mxGeometry x="603" y="1270" width="80" height="60" as="geometry" />
        </mxCell>
        <mxCell id="NfxwwBregV6ilm60lZet-55" value="&lt;h1 style=&quot;margin-top: 0px;&quot;&gt;Функция&amp;nbsp;check_same_sign(arr)&lt;/h1&gt;" style="text;html=1;whiteSpace=wrap;overflow=hidden;rounded=0;" vertex="1" parent="1">
          <mxGeometry x="460" y="1120" width="371" height="80" as="geometry" />
        </mxCell>
        <mxCell id="aqvcJGFv9cbu1GrJa5O3-2" value="R6" style="text;html=1;align=center;verticalAlign=middle;whiteSpace=wrap;rounded=0;fontSize=29;" vertex="1" parent="1">
          <mxGeometry x="150" y="1840" width="60" height="30" as="geometry" />
        </mxCell>
      </root>
    </mxGraphModel>
  </diagram>
  <diagram id="UiYgE5qicycrLl2xyZPX" name="Граф 2">
    <mxGraphModel dx="-110" dy="286" grid="1" gridSize="10" guides="1" tooltips="1" connect="1" arrows="1" fold="1" page="1" pageScale="1" pageWidth="850" pageHeight="1100" math="0" shadow="0">
      <root>
        <mxCell id="0" />
        <mxCell id="1" parent="0" />
        <mxCell id="Us3mv0Su7J3CuGqmZ_fj-1" style="edgeStyle=orthogonalEdgeStyle;rounded=0;orthogonalLoop=1;jettySize=auto;html=1;entryX=0.5;entryY=0;entryDx=0;entryDy=0;" edge="1" parent="1" source="Us3mv0Su7J3CuGqmZ_fj-2" target="Us3mv0Su7J3CuGqmZ_fj-4">
          <mxGeometry relative="1" as="geometry" />
        </mxCell>
        <mxCell id="Us3mv0Su7J3CuGqmZ_fj-2" value="вх.данные (arrays)" style="ellipse;whiteSpace=wrap;html=1;" vertex="1" parent="1">
          <mxGeometry x="1650" y="1160" width="80" height="60" as="geometry" />
        </mxCell>
        <mxCell id="Us3mv0Su7J3CuGqmZ_fj-3" style="edgeStyle=orthogonalEdgeStyle;rounded=0;orthogonalLoop=1;jettySize=auto;html=1;" edge="1" parent="1" source="Us3mv0Su7J3CuGqmZ_fj-4" target="Us3mv0Su7J3CuGqmZ_fj-7">
          <mxGeometry relative="1" as="geometry" />
        </mxCell>
        <mxCell id="Us3mv0Su7J3CuGqmZ_fj-4" value="found = false&lt;div&gt;i = 1&lt;/div&gt;&lt;div&gt;j = 1&lt;/div&gt;" style="ellipse;whiteSpace=wrap;html=1;" vertex="1" parent="1">
          <mxGeometry x="1635" y="1250" width="110" height="70" as="geometry" />
        </mxCell>
        <mxCell id="Us3mv0Su7J3CuGqmZ_fj-5" style="rounded=0;orthogonalLoop=1;jettySize=auto;html=1;entryX=0.5;entryY=0;entryDx=0;entryDy=0;curved=1;" edge="1" parent="1" source="Us3mv0Su7J3CuGqmZ_fj-7" target="Us3mv0Su7J3CuGqmZ_fj-9">
          <mxGeometry relative="1" as="geometry">
            <Array as="points">
              <mxPoint x="1580" y="1380" />
            </Array>
          </mxGeometry>
        </mxCell>
        <mxCell id="Us3mv0Su7J3CuGqmZ_fj-6" style="rounded=0;orthogonalLoop=1;jettySize=auto;html=1;entryX=0.5;entryY=0;entryDx=0;entryDy=0;curved=1;" edge="1" parent="1" source="Us3mv0Su7J3CuGqmZ_fj-7" target="Us3mv0Su7J3CuGqmZ_fj-11">
          <mxGeometry relative="1" as="geometry">
            <Array as="points">
              <mxPoint x="1860" y="1380" />
            </Array>
          </mxGeometry>
        </mxCell>
        <mxCell id="Us3mv0Su7J3CuGqmZ_fj-7" value="j&amp;lt;len(arrays)" style="ellipse;whiteSpace=wrap;html=1;" vertex="1" parent="1">
          <mxGeometry x="1642.5" y="1350" width="95" height="60" as="geometry" />
        </mxCell>
        <mxCell id="Us3mv0Su7J3CuGqmZ_fj-8" style="rounded=0;orthogonalLoop=1;jettySize=auto;html=1;curved=1;entryX=0.5;entryY=0;entryDx=0;entryDy=0;" edge="1" parent="1" target="Us3mv0Su7J3CuGqmZ_fj-15">
          <mxGeometry relative="1" as="geometry">
            <mxPoint x="1432.5" y="1660" as="targetPoint" />
            <mxPoint x="1500" y="1440" as="sourcePoint" />
            <Array as="points">
              <mxPoint x="1360" y="1570" />
            </Array>
          </mxGeometry>
        </mxCell>
        <mxCell id="Us3mv0Su7J3CuGqmZ_fj-9" value="found == 0" style="ellipse;whiteSpace=wrap;html=1;" vertex="1" parent="1">
          <mxGeometry x="1500" y="1410" width="95" height="60" as="geometry" />
        </mxCell>
        <mxCell id="Us3mv0Su7J3CuGqmZ_fj-10" style="rounded=0;orthogonalLoop=1;jettySize=auto;html=1;entryX=0.5;entryY=0;entryDx=0;entryDy=0;curved=1;" edge="1" parent="1" source="Us3mv0Su7J3CuGqmZ_fj-11" target="Us3mv0Su7J3CuGqmZ_fj-21">
          <mxGeometry relative="1" as="geometry">
            <mxPoint x="1780" y="1740" as="targetPoint" />
            <Array as="points">
              <mxPoint x="1780" y="1580" />
            </Array>
          </mxGeometry>
        </mxCell>
        <mxCell id="Us3mv0Su7J3CuGqmZ_fj-11" value="check_same_sign(arrays[j])" style="ellipse;whiteSpace=wrap;html=1;" vertex="1" parent="1">
          <mxGeometry x="1820" y="1410" width="190" height="60" as="geometry" />
        </mxCell>
        <mxCell id="Us3mv0Su7J3CuGqmZ_fj-12" style="edgeStyle=orthogonalEdgeStyle;rounded=0;orthogonalLoop=1;jettySize=auto;html=1;entryX=1;entryY=0.5;entryDx=0;entryDy=0;exitX=0.5;exitY=1;exitDx=0;exitDy=0;curved=1;" edge="1" parent="1" source="Us3mv0Su7J3CuGqmZ_fj-13" target="Us3mv0Su7J3CuGqmZ_fj-15">
          <mxGeometry relative="1" as="geometry">
            <mxPoint x="1615" y="1900" as="targetPoint" />
            <Array as="points">
              <mxPoint x="1645" y="1880" />
            </Array>
          </mxGeometry>
        </mxCell>
        <mxCell id="Us3mv0Su7J3CuGqmZ_fj-13" value="Вывод" style="ellipse;whiteSpace=wrap;html=1;" vertex="1" parent="1">
          <mxGeometry x="1590" y="1620" width="110" height="60" as="geometry" />
        </mxCell>
        <mxCell id="Us3mv0Su7J3CuGqmZ_fj-14" style="edgeStyle=orthogonalEdgeStyle;rounded=0;orthogonalLoop=1;jettySize=auto;html=1;exitX=1;exitY=0.5;exitDx=0;exitDy=0;entryX=0.564;entryY=-0.05;entryDx=0;entryDy=0;entryPerimeter=0;curved=1;" edge="1" parent="1" source="Us3mv0Su7J3CuGqmZ_fj-9" target="Us3mv0Su7J3CuGqmZ_fj-13">
          <mxGeometry relative="1" as="geometry" />
        </mxCell>
        <mxCell id="Us3mv0Su7J3CuGqmZ_fj-15" value="Конец" style="ellipse;whiteSpace=wrap;html=1;" vertex="1" parent="1">
          <mxGeometry x="1390" y="1840" width="120" height="80" as="geometry" />
        </mxCell>
        <mxCell id="Us3mv0Su7J3CuGqmZ_fj-16" style="edgeStyle=orthogonalEdgeStyle;rounded=0;orthogonalLoop=1;jettySize=auto;html=1;entryX=0.5;entryY=0;entryDx=0;entryDy=0;" edge="1" parent="1" source="Us3mv0Su7J3CuGqmZ_fj-17" target="Us3mv0Su7J3CuGqmZ_fj-19">
          <mxGeometry relative="1" as="geometry" />
        </mxCell>
        <mxCell id="Us3mv0Su7J3CuGqmZ_fj-17" value="Вывод" style="ellipse;whiteSpace=wrap;html=1;" vertex="1" parent="1">
          <mxGeometry x="2020" y="1560" width="120" height="80" as="geometry" />
        </mxCell>
        <mxCell id="Us3mv0Su7J3CuGqmZ_fj-18" style="rounded=0;orthogonalLoop=1;jettySize=auto;html=1;entryX=1;entryY=0;entryDx=0;entryDy=0;" edge="1" parent="1" source="Us3mv0Su7J3CuGqmZ_fj-19" target="Us3mv0Su7J3CuGqmZ_fj-21">
          <mxGeometry relative="1" as="geometry">
            <mxPoint x="1850" y="1800" as="targetPoint" />
          </mxGeometry>
        </mxCell>
        <mxCell id="Us3mv0Su7J3CuGqmZ_fj-19" value="found = true" style="ellipse;whiteSpace=wrap;html=1;" vertex="1" parent="1">
          <mxGeometry x="2020" y="1680" width="120" height="80" as="geometry" />
        </mxCell>
        <mxCell id="Us3mv0Su7J3CuGqmZ_fj-20" style="rounded=0;orthogonalLoop=1;jettySize=auto;html=1;curved=1;" edge="1" parent="1" source="Us3mv0Su7J3CuGqmZ_fj-21" target="Us3mv0Su7J3CuGqmZ_fj-7">
          <mxGeometry relative="1" as="geometry">
            <mxPoint x="1690" y="1330" as="targetPoint" />
            <Array as="points">
              <mxPoint x="2260" y="1910" />
              <mxPoint x="2280" y="1290" />
            </Array>
          </mxGeometry>
        </mxCell>
        <mxCell id="Us3mv0Su7J3CuGqmZ_fj-21" value="i += 1" style="ellipse;whiteSpace=wrap;html=1;" vertex="1" parent="1">
          <mxGeometry x="1720" y="1800" width="120" height="80" as="geometry" />
        </mxCell>
        <mxCell id="Us3mv0Su7J3CuGqmZ_fj-22" style="rounded=0;orthogonalLoop=1;jettySize=auto;html=1;entryX=0.355;entryY=-0.015;entryDx=0;entryDy=0;entryPerimeter=0;" edge="1" parent="1" source="Us3mv0Su7J3CuGqmZ_fj-11" target="Us3mv0Su7J3CuGqmZ_fj-17">
          <mxGeometry relative="1" as="geometry">
            <mxPoint x="2080" y="1560" as="targetPoint" />
            <mxPoint x="2005" y="1430" as="sourcePoint" />
          </mxGeometry>
        </mxCell>
        <mxCell id="Us3mv0Su7J3CuGqmZ_fj-23" value="R1" style="text;html=1;align=center;verticalAlign=middle;whiteSpace=wrap;rounded=0;fontSize=29;" vertex="1" parent="1">
          <mxGeometry x="1500" y="1560" width="60" height="30" as="geometry" />
        </mxCell>
        <mxCell id="Us3mv0Su7J3CuGqmZ_fj-24" value="R2" style="text;html=1;align=center;verticalAlign=middle;whiteSpace=wrap;rounded=0;fontSize=29;" vertex="1" parent="1">
          <mxGeometry x="1890" y="1610" width="60" height="30" as="geometry" />
        </mxCell>
        <mxCell id="Us3mv0Su7J3CuGqmZ_fj-25" value="R3" style="text;html=1;align=center;verticalAlign=middle;whiteSpace=wrap;rounded=0;fontSize=29;" vertex="1" parent="1">
          <mxGeometry x="2150" y="1550" width="60" height="30" as="geometry" />
        </mxCell>
        <mxCell id="a7Q4VkXev0Z5ZFuvlq8Y-1" value="&lt;h1 style=&quot;margin-top: 0px;&quot;&gt;Функция&amp;nbsp;process_arrays(arrays)&lt;/h1&gt;" style="text;html=1;whiteSpace=wrap;overflow=hidden;rounded=0;" vertex="1" parent="1">
          <mxGeometry x="1490" y="1100" width="403.71" height="80" as="geometry" />
        </mxCell>
      </root>
    </mxGraphModel>
  </diagram>
  <diagram id="oN30_kOCLid2hrtTkH-L" name="Диаграмма 1">
    <mxGraphModel dx="1911" dy="1179" grid="1" gridSize="10" guides="1" tooltips="1" connect="1" arrows="1" fold="1" page="1" pageScale="1" pageWidth="850" pageHeight="1100" math="0" shadow="0">
      <root>
        <mxCell id="0" />
        <mxCell id="1" parent="0" />
        <mxCell id="AvSHZngelIZwFtdvS2oX-1" value="начало" style="ellipse;whiteSpace=wrap;html=1;" vertex="1" parent="1">
          <mxGeometry x="354" y="160" width="86" height="50" as="geometry" />
        </mxCell>
        <mxCell id="AvSHZngelIZwFtdvS2oX-2" value="arr" style="shape=parallelogram;perimeter=parallelogramPerimeter;whiteSpace=wrap;html=1;fixedSize=1;" vertex="1" parent="1">
          <mxGeometry x="345.5" y="240" width="103" height="40" as="geometry" />
        </mxCell>
        <mxCell id="AvSHZngelIZwFtdvS2oX-3" value="if len(arr) == 0" style="rhombus;whiteSpace=wrap;html=1;" vertex="1" parent="1">
          <mxGeometry x="332" y="311" width="130" height="50" as="geometry" />
        </mxCell>
        <mxCell id="AvSHZngelIZwFtdvS2oX-4" value="" style="endArrow=classic;html=1;rounded=0;exitX=1;exitY=0.5;exitDx=0;exitDy=0;entryX=0.5;entryY=0;entryDx=0;entryDy=0;" edge="1" parent="1" source="AvSHZngelIZwFtdvS2oX-3" target="AvSHZngelIZwFtdvS2oX-6">
          <mxGeometry width="50" height="50" relative="1" as="geometry">
            <mxPoint x="380" y="550" as="sourcePoint" />
            <mxPoint x="508.5" y="370" as="targetPoint" />
          </mxGeometry>
        </mxCell>
        <mxCell id="AvSHZngelIZwFtdvS2oX-5" value="first_sign = None" style="rounded=0;whiteSpace=wrap;html=1;" vertex="1" parent="1">
          <mxGeometry x="201.5" y="361" width="100" height="34" as="geometry" />
        </mxCell>
        <mxCell id="AvSHZngelIZwFtdvS2oX-6" value="return false" style="shape=parallelogram;perimeter=parallelogramPerimeter;whiteSpace=wrap;html=1;fixedSize=1;" vertex="1" parent="1">
          <mxGeometry x="405.5" y="552.5" width="110" height="40" as="geometry" />
        </mxCell>
        <mxCell id="AvSHZngelIZwFtdvS2oX-7" value="" style="endArrow=classic;html=1;rounded=0;entryX=0.114;entryY=0.419;entryDx=0;entryDy=0;exitX=0.958;exitY=0.519;exitDx=0;exitDy=0;exitPerimeter=0;entryPerimeter=0;" edge="1" parent="1" target="AvSHZngelIZwFtdvS2oX-6">
          <mxGeometry width="50" height="50" relative="1" as="geometry">
            <mxPoint x="353.99800000000005" y="569.643" as="sourcePoint" />
            <mxPoint x="418.24" y="571.25" as="targetPoint" />
            <Array as="points">
              <mxPoint x="380" y="569" />
            </Array>
          </mxGeometry>
        </mxCell>
        <mxCell id="AvSHZngelIZwFtdvS2oX-8" value="if first_sign == -1" style="rhombus;whiteSpace=wrap;html=1;" vertex="1" parent="1">
          <mxGeometry x="155" y="606.25" width="130" height="47.5" as="geometry" />
        </mxCell>
        <mxCell id="AvSHZngelIZwFtdvS2oX-9" value="first_sign = arr[i] &amp;gt; 0" style="rounded=0;whiteSpace=wrap;html=1;" vertex="1" parent="1">
          <mxGeometry x="369" y="765" width="125" height="50" as="geometry" />
        </mxCell>
        <mxCell id="AvSHZngelIZwFtdvS2oX-10" value="if (arr[i] &amp;gt; 0) != first_sign&amp;nbsp;" style="rhombus;whiteSpace=wrap;html=1;" vertex="1" parent="1">
          <mxGeometry x="120" y="685" width="130" height="70" as="geometry" />
        </mxCell>
        <mxCell id="AvSHZngelIZwFtdvS2oX-11" value="" style="endArrow=classic;html=1;rounded=0;exitX=1;exitY=0.5;exitDx=0;exitDy=0;entryX=0.148;entryY=1.032;entryDx=0;entryDy=0;entryPerimeter=0;" edge="1" parent="1" source="AvSHZngelIZwFtdvS2oX-10" target="AvSHZngelIZwFtdvS2oX-6">
          <mxGeometry width="50" height="50" relative="1" as="geometry">
            <mxPoint x="425" y="580" as="sourcePoint" />
            <mxPoint x="400" y="610" as="targetPoint" />
            <Array as="points">
              <mxPoint x="420" y="720" />
            </Array>
          </mxGeometry>
        </mxCell>
        <mxCell id="AvSHZngelIZwFtdvS2oX-12" value="i += 1" style="rounded=0;whiteSpace=wrap;html=1;" vertex="1" parent="1">
          <mxGeometry x="211.5" y="930" width="100" height="40" as="geometry" />
        </mxCell>
        <mxCell id="AvSHZngelIZwFtdvS2oX-13" value="if i &amp;lt; len(arr)" style="rhombus;whiteSpace=wrap;html=1;" vertex="1" parent="1">
          <mxGeometry x="209" y="460" width="85" height="40" as="geometry" />
        </mxCell>
        <mxCell id="AvSHZngelIZwFtdvS2oX-14" value="" style="endArrow=classic;html=1;rounded=0;exitX=1;exitY=0.5;exitDx=0;exitDy=0;entryX=0.394;entryY=0.053;entryDx=0;entryDy=0;entryPerimeter=0;" edge="1" parent="1" source="AvSHZngelIZwFtdvS2oX-13" target="AvSHZngelIZwFtdvS2oX-33">
          <mxGeometry width="50" height="50" relative="1" as="geometry">
            <mxPoint x="170" y="570" as="sourcePoint" />
            <mxPoint x="315" y="550" as="targetPoint" />
          </mxGeometry>
        </mxCell>
        <mxCell id="AvSHZngelIZwFtdvS2oX-15" value="Да" style="text;html=1;align=center;verticalAlign=middle;whiteSpace=wrap;rounded=0;" vertex="1" parent="1">
          <mxGeometry x="270" y="450" width="20" height="20" as="geometry" />
        </mxCell>
        <mxCell id="AvSHZngelIZwFtdvS2oX-16" style="edgeStyle=orthogonalEdgeStyle;rounded=0;orthogonalLoop=1;jettySize=auto;html=1;exitX=0.5;exitY=1;exitDx=0;exitDy=0;" edge="1" parent="1" source="AvSHZngelIZwFtdvS2oX-15" target="AvSHZngelIZwFtdvS2oX-15">
          <mxGeometry relative="1" as="geometry" />
        </mxCell>
        <mxCell id="AvSHZngelIZwFtdvS2oX-17" value="return true" style="shape=parallelogram;perimeter=parallelogramPerimeter;whiteSpace=wrap;html=1;fixedSize=1;" vertex="1" parent="1">
          <mxGeometry x="35" y="546.25" width="95" height="40" as="geometry" />
        </mxCell>
        <mxCell id="AvSHZngelIZwFtdvS2oX-18" value="" style="endArrow=classic;html=1;rounded=0;exitX=0;exitY=0.5;exitDx=0;exitDy=0;entryX=0.672;entryY=-0.068;entryDx=0;entryDy=0;entryPerimeter=0;" edge="1" parent="1" source="AvSHZngelIZwFtdvS2oX-13" target="AvSHZngelIZwFtdvS2oX-17">
          <mxGeometry width="50" height="50" relative="1" as="geometry">
            <mxPoint x="170" y="570" as="sourcePoint" />
            <mxPoint x="220" y="520" as="targetPoint" />
            <Array as="points">
              <mxPoint x="100" y="480" />
            </Array>
          </mxGeometry>
        </mxCell>
        <mxCell id="AvSHZngelIZwFtdvS2oX-19" value="Нет" style="text;whiteSpace=wrap;html=1;" vertex="1" parent="1">
          <mxGeometry x="140" y="602.5" width="30" height="20" as="geometry" />
        </mxCell>
        <mxCell id="AvSHZngelIZwFtdvS2oX-20" value="" style="endArrow=classic;html=1;rounded=0;exitX=0.048;exitY=0.428;exitDx=0;exitDy=0;entryX=0.25;entryY=1;entryDx=0;entryDy=0;exitPerimeter=0;" edge="1" parent="1" source="AvSHZngelIZwFtdvS2oX-33">
          <mxGeometry width="50" height="50" relative="1" as="geometry">
            <mxPoint x="250" y="570" as="sourcePoint" />
            <mxPoint x="220.0000000000001" y="610.0000000000001" as="targetPoint" />
            <Array as="points">
              <mxPoint x="220" y="567" />
            </Array>
          </mxGeometry>
        </mxCell>
        <mxCell id="AvSHZngelIZwFtdvS2oX-21" value="" style="endArrow=classic;html=1;rounded=0;exitX=0;exitY=0.5;exitDx=0;exitDy=0;entryX=0.277;entryY=0.207;entryDx=0;entryDy=0;entryPerimeter=0;" edge="1" parent="1" source="AvSHZngelIZwFtdvS2oX-8" target="AvSHZngelIZwFtdvS2oX-10">
          <mxGeometry width="50" height="50" relative="1" as="geometry">
            <mxPoint x="120" y="830" as="sourcePoint" />
            <mxPoint x="170" y="780" as="targetPoint" />
          </mxGeometry>
        </mxCell>
        <mxCell id="AvSHZngelIZwFtdvS2oX-22" value="" style="endArrow=classic;html=1;rounded=0;entryX=0.096;entryY=-0.06;entryDx=0;entryDy=0;entryPerimeter=0;exitX=1;exitY=0.5;exitDx=0;exitDy=0;" edge="1" parent="1" source="AvSHZngelIZwFtdvS2oX-8" target="AvSHZngelIZwFtdvS2oX-9">
          <mxGeometry width="50" height="50" relative="1" as="geometry">
            <mxPoint x="480" y="840" as="sourcePoint" />
            <mxPoint x="530" y="790" as="targetPoint" />
            <Array as="points">
              <mxPoint x="380" y="630" />
            </Array>
          </mxGeometry>
        </mxCell>
        <mxCell id="AvSHZngelIZwFtdvS2oX-23" value="" style="endArrow=classic;html=1;rounded=0;exitX=0.5;exitY=1;exitDx=0;exitDy=0;entryX=1;entryY=0.5;entryDx=0;entryDy=0;" edge="1" parent="1" source="AvSHZngelIZwFtdvS2oX-9" target="AvSHZngelIZwFtdvS2oX-12">
          <mxGeometry width="50" height="50" relative="1" as="geometry">
            <mxPoint x="440" y="850" as="sourcePoint" />
            <mxPoint x="490" y="800" as="targetPoint" />
            <Array as="points">
              <mxPoint x="430" y="950" />
            </Array>
          </mxGeometry>
        </mxCell>
        <mxCell id="AvSHZngelIZwFtdvS2oX-24" value="" style="endArrow=classic;html=1;rounded=0;exitX=0;exitY=0.5;exitDx=0;exitDy=0;entryX=0;entryY=0.5;entryDx=0;entryDy=0;" edge="1" parent="1" source="AvSHZngelIZwFtdvS2oX-10" target="AvSHZngelIZwFtdvS2oX-12">
          <mxGeometry width="50" height="50" relative="1" as="geometry">
            <mxPoint x="100" y="730" as="sourcePoint" />
            <mxPoint x="180" y="890" as="targetPoint" />
            <Array as="points">
              <mxPoint x="120" y="950" />
            </Array>
          </mxGeometry>
        </mxCell>
        <mxCell id="AvSHZngelIZwFtdvS2oX-25" value="" style="endArrow=none;html=1;rounded=0;exitX=0.549;exitY=1.002;exitDx=0;exitDy=0;exitPerimeter=0;" edge="1" parent="1" source="AvSHZngelIZwFtdvS2oX-12">
          <mxGeometry width="50" height="50" relative="1" as="geometry">
            <mxPoint x="280" y="970" as="sourcePoint" />
            <mxPoint x="550" y="940" as="targetPoint" />
            <Array as="points">
              <mxPoint x="266" y="1000" />
              <mxPoint x="550" y="1000" />
            </Array>
          </mxGeometry>
        </mxCell>
        <mxCell id="AvSHZngelIZwFtdvS2oX-26" value="" style="endArrow=none;html=1;rounded=0;" edge="1" parent="1">
          <mxGeometry width="50" height="50" relative="1" as="geometry">
            <mxPoint x="550" y="940" as="sourcePoint" />
            <mxPoint x="550" y="440" as="targetPoint" />
          </mxGeometry>
        </mxCell>
        <mxCell id="AvSHZngelIZwFtdvS2oX-27" value="" style="endArrow=classic;html=1;rounded=0;" edge="1" parent="1">
          <mxGeometry width="50" height="50" relative="1" as="geometry">
            <mxPoint x="550" y="440" as="sourcePoint" />
            <mxPoint x="252" y="440" as="targetPoint" />
          </mxGeometry>
        </mxCell>
        <mxCell id="AvSHZngelIZwFtdvS2oX-28" value="" style="endArrow=classic;html=1;rounded=0;exitX=0.5;exitY=1;exitDx=0;exitDy=0;" edge="1" parent="1" source="AvSHZngelIZwFtdvS2oX-5">
          <mxGeometry width="50" height="50" relative="1" as="geometry">
            <mxPoint x="10" y="450" as="sourcePoint" />
            <mxPoint x="252" y="460" as="targetPoint" />
          </mxGeometry>
        </mxCell>
        <mxCell id="AvSHZngelIZwFtdvS2oX-29" value="" style="endArrow=classic;html=1;rounded=0;exitX=0;exitY=0.5;exitDx=0;exitDy=0;" edge="1" parent="1" source="AvSHZngelIZwFtdvS2oX-3">
          <mxGeometry width="50" height="50" relative="1" as="geometry">
            <mxPoint x="110" y="330" as="sourcePoint" />
            <mxPoint x="250" y="360" as="targetPoint" />
            <Array as="points">
              <mxPoint x="250" y="336" />
            </Array>
          </mxGeometry>
        </mxCell>
        <mxCell id="AvSHZngelIZwFtdvS2oX-30" value="" style="endArrow=classic;html=1;rounded=0;exitX=0.5;exitY=1;exitDx=0;exitDy=0;entryX=0.5;entryY=0;entryDx=0;entryDy=0;" edge="1" parent="1" source="AvSHZngelIZwFtdvS2oX-2" target="AvSHZngelIZwFtdvS2oX-3">
          <mxGeometry width="50" height="50" relative="1" as="geometry">
            <mxPoint x="50" y="230" as="sourcePoint" />
            <mxPoint x="100" y="180" as="targetPoint" />
          </mxGeometry>
        </mxCell>
        <mxCell id="AvSHZngelIZwFtdvS2oX-31" value="" style="endArrow=classic;html=1;rounded=0;exitX=0.5;exitY=1;exitDx=0;exitDy=0;" edge="1" parent="1" source="AvSHZngelIZwFtdvS2oX-1" target="AvSHZngelIZwFtdvS2oX-2">
          <mxGeometry width="50" height="50" relative="1" as="geometry">
            <mxPoint x="230" y="190" as="sourcePoint" />
            <mxPoint x="280" y="140" as="targetPoint" />
          </mxGeometry>
        </mxCell>
        <mxCell id="AvSHZngelIZwFtdvS2oX-32" value="&lt;h1 style=&quot;margin-top: 0px;&quot;&gt;Функция&amp;nbsp;check_same_sign(arr)&lt;/h1&gt;" style="text;html=1;whiteSpace=wrap;overflow=hidden;rounded=0;" vertex="1" parent="1">
          <mxGeometry x="240" y="110" width="371" height="80" as="geometry" />
        </mxCell>
        <mxCell id="AvSHZngelIZwFtdvS2oX-33" value="if arr[i] == 0" style="rhombus;whiteSpace=wrap;html=1;" vertex="1" parent="1">
          <mxGeometry x="254.5" y="546.5" width="101" height="47" as="geometry" />
        </mxCell>
        <mxCell id="AvSHZngelIZwFtdvS2oX-34" value="Конец" style="ellipse;whiteSpace=wrap;html=1;" vertex="1" parent="1">
          <mxGeometry x="211.5" y="1030" width="80" height="46" as="geometry" />
        </mxCell>
        <mxCell id="AvSHZngelIZwFtdvS2oX-35" value="" style="endArrow=classic;html=1;rounded=0;exitX=0.5;exitY=1;exitDx=0;exitDy=0;entryX=0;entryY=0.5;entryDx=0;entryDy=0;" edge="1" parent="1" source="AvSHZngelIZwFtdvS2oX-17" target="AvSHZngelIZwFtdvS2oX-34">
          <mxGeometry width="50" height="50" relative="1" as="geometry">
            <mxPoint x="30" y="540" as="sourcePoint" />
            <mxPoint x="220" y="1140" as="targetPoint" />
            <Array as="points">
              <mxPoint x="80" y="1050" />
            </Array>
          </mxGeometry>
        </mxCell>
        <mxCell id="AvSHZngelIZwFtdvS2oX-36" value="" style="endArrow=classic;html=1;rounded=0;exitX=1;exitY=0.5;exitDx=0;exitDy=0;entryX=1;entryY=0.5;entryDx=0;entryDy=0;" edge="1" parent="1" source="AvSHZngelIZwFtdvS2oX-6" target="AvSHZngelIZwFtdvS2oX-34">
          <mxGeometry width="50" height="50" relative="1" as="geometry">
            <mxPoint x="590" y="740" as="sourcePoint" />
            <mxPoint x="80" y="850" as="targetPoint" />
            <Array as="points">
              <mxPoint x="581" y="574" />
              <mxPoint x="580" y="1053" />
            </Array>
          </mxGeometry>
        </mxCell>
        <mxCell id="AvSHZngelIZwFtdvS2oX-37" value="Нет" style="text;whiteSpace=wrap;html=1;" vertex="1" parent="1">
          <mxGeometry x="181.5" y="458" width="30" height="20" as="geometry" />
        </mxCell>
        <mxCell id="AvSHZngelIZwFtdvS2oX-38" value="Нет" style="text;whiteSpace=wrap;html=1;" vertex="1" parent="1">
          <mxGeometry x="275" y="313" width="30" height="20" as="geometry" />
        </mxCell>
        <mxCell id="AvSHZngelIZwFtdvS2oX-39" value="Нет" style="text;whiteSpace=wrap;html=1;" vertex="1" parent="1">
          <mxGeometry x="110" y="690" width="30" height="20" as="geometry" />
        </mxCell>
        <mxCell id="AvSHZngelIZwFtdvS2oX-40" value="Нет" style="text;whiteSpace=wrap;html=1;" vertex="1" parent="1">
          <mxGeometry x="220" y="545" width="30" height="20" as="geometry" />
        </mxCell>
        <mxCell id="AvSHZngelIZwFtdvS2oX-41" value="Да" style="text;html=1;align=center;verticalAlign=middle;whiteSpace=wrap;rounded=0;" vertex="1" parent="1">
          <mxGeometry x="369" y="546.5" width="20" height="20" as="geometry" />
        </mxCell>
        <mxCell id="AvSHZngelIZwFtdvS2oX-42" value="Да" style="text;html=1;align=center;verticalAlign=middle;whiteSpace=wrap;rounded=0;" vertex="1" parent="1">
          <mxGeometry x="295" y="606.25" width="20" height="20" as="geometry" />
        </mxCell>
        <mxCell id="AvSHZngelIZwFtdvS2oX-43" value="Да" style="text;html=1;align=center;verticalAlign=middle;whiteSpace=wrap;rounded=0;" vertex="1" parent="1">
          <mxGeometry x="250" y="690" width="20" height="20" as="geometry" />
        </mxCell>
        <mxCell id="AvSHZngelIZwFtdvS2oX-44" value="Да" style="text;html=1;align=center;verticalAlign=middle;whiteSpace=wrap;rounded=0;" vertex="1" parent="1">
          <mxGeometry x="470" y="311" width="20" height="20" as="geometry" />
        </mxCell>
      </root>
    </mxGraphModel>
  </diagram>
  <diagram id="nyfgsScLT02x-lbtb5kP" name="Диаграмма 2">
    <mxGraphModel dx="1911" dy="1179" grid="1" gridSize="10" guides="1" tooltips="1" connect="1" arrows="1" fold="1" page="1" pageScale="1" pageWidth="850" pageHeight="1100" math="0" shadow="0">
      <root>
        <mxCell id="0" />
        <mxCell id="1" parent="0" />
        <mxCell id="LSAxhmwy-rFuULxU-h1Q-1" value="Начало" style="ellipse;whiteSpace=wrap;html=1;" vertex="1" parent="1">
          <mxGeometry x="1001.29" y="160" width="100" height="60" as="geometry" />
        </mxCell>
        <mxCell id="LSAxhmwy-rFuULxU-h1Q-2" value="found = false&lt;div&gt;i = 1&lt;/div&gt;&lt;div&gt;j = 1&lt;/div&gt;" style="rounded=0;whiteSpace=wrap;html=1;" vertex="1" parent="1">
          <mxGeometry x="991.29" y="320" width="110" height="50" as="geometry" />
        </mxCell>
        <mxCell id="LSAxhmwy-rFuULxU-h1Q-3" value="if&amp;nbsp;&lt;b&gt;check_same_sign&lt;/b&gt; (arrays[j])" style="rhombus;whiteSpace=wrap;html=1;" vertex="1" parent="1">
          <mxGeometry x="1056.29" y="527.5" width="245" height="89" as="geometry" />
        </mxCell>
        <mxCell id="LSAxhmwy-rFuULxU-h1Q-4" value="Вывод(&quot;Массив {i} состоит из элементов одного знака.&quot;)" style="shape=parallelogram;perimeter=parallelogramPerimeter;whiteSpace=wrap;html=1;fixedSize=1;" vertex="1" parent="1">
          <mxGeometry x="1261.29" y="622.5" width="210" height="60" as="geometry" />
        </mxCell>
        <mxCell id="LSAxhmwy-rFuULxU-h1Q-5" value="found = True" style="rounded=0;whiteSpace=wrap;html=1;" vertex="1" parent="1">
          <mxGeometry x="1301.29" y="732.5" width="120" height="40" as="geometry" />
        </mxCell>
        <mxCell id="LSAxhmwy-rFuULxU-h1Q-6" value="i += 1" style="rounded=0;whiteSpace=wrap;html=1;" vertex="1" parent="1">
          <mxGeometry x="996.29" y="835" width="120" height="60" as="geometry" />
        </mxCell>
        <mxCell id="LSAxhmwy-rFuULxU-h1Q-7" value="" style="endArrow=classic;html=1;rounded=0;exitX=0.454;exitY=0.957;exitDx=0;exitDy=0;exitPerimeter=0;" edge="1" parent="1" source="LSAxhmwy-rFuULxU-h1Q-4">
          <mxGeometry width="50" height="50" relative="1" as="geometry">
            <mxPoint x="1371.29" y="692.5" as="sourcePoint" />
            <mxPoint x="1356.29" y="729.5" as="targetPoint" />
          </mxGeometry>
        </mxCell>
        <mxCell id="LSAxhmwy-rFuULxU-h1Q-8" value="arrays" style="shape=parallelogram;perimeter=parallelogramPerimeter;whiteSpace=wrap;html=1;fixedSize=1;" vertex="1" parent="1">
          <mxGeometry x="994.79" y="250" width="103" height="40" as="geometry" />
        </mxCell>
        <mxCell id="LSAxhmwy-rFuULxU-h1Q-9" value="if j &amp;lt; len(arays)" style="rhombus;whiteSpace=wrap;html=1;" vertex="1" parent="1">
          <mxGeometry x="985.54" y="408" width="121.5" height="80" as="geometry" />
        </mxCell>
        <mxCell id="LSAxhmwy-rFuULxU-h1Q-10" value="if found == 0" style="rhombus;whiteSpace=wrap;html=1;" vertex="1" parent="1">
          <mxGeometry x="796.29" y="480" width="133" height="70" as="geometry" />
        </mxCell>
        <mxCell id="LSAxhmwy-rFuULxU-h1Q-11" value="Вывод(&quot;Нет массивов, состоящих из элементов одного знака.&quot;)" style="shape=parallelogram;perimeter=parallelogramPerimeter;whiteSpace=wrap;html=1;fixedSize=1;" vertex="1" parent="1">
          <mxGeometry x="766.29" y="650" width="260" height="100" as="geometry" />
        </mxCell>
        <mxCell id="LSAxhmwy-rFuULxU-h1Q-12" value="" style="endArrow=classic;html=1;rounded=0;exitX=0.5;exitY=1;exitDx=0;exitDy=0;" edge="1" parent="1" source="LSAxhmwy-rFuULxU-h1Q-5">
          <mxGeometry width="50" height="50" relative="1" as="geometry">
            <mxPoint x="1416.29" y="820" as="sourcePoint" />
            <mxPoint x="1056.29" y="800" as="targetPoint" />
            <Array as="points">
              <mxPoint x="1361.29" y="800" />
            </Array>
          </mxGeometry>
        </mxCell>
        <mxCell id="LSAxhmwy-rFuULxU-h1Q-13" value="" style="endArrow=classic;html=1;rounded=0;exitX=0;exitY=0.5;exitDx=0;exitDy=0;entryX=0.5;entryY=0;entryDx=0;entryDy=0;" edge="1" parent="1" source="LSAxhmwy-rFuULxU-h1Q-3" target="LSAxhmwy-rFuULxU-h1Q-6">
          <mxGeometry width="50" height="50" relative="1" as="geometry">
            <mxPoint x="926.29" y="790" as="sourcePoint" />
            <mxPoint x="976.29" y="740" as="targetPoint" />
          </mxGeometry>
        </mxCell>
        <mxCell id="LSAxhmwy-rFuULxU-h1Q-14" value="" style="endArrow=classic;html=1;rounded=0;entryX=0.437;entryY=0.082;entryDx=0;entryDy=0;entryPerimeter=0;exitX=1;exitY=0.5;exitDx=0;exitDy=0;" edge="1" parent="1" source="LSAxhmwy-rFuULxU-h1Q-3" target="LSAxhmwy-rFuULxU-h1Q-4">
          <mxGeometry width="50" height="50" relative="1" as="geometry">
            <mxPoint x="1316.29" y="580" as="sourcePoint" />
            <mxPoint x="1486.29" y="850" as="targetPoint" />
            <Array as="points">
              <mxPoint x="1352.29" y="573" />
            </Array>
          </mxGeometry>
        </mxCell>
        <mxCell id="LSAxhmwy-rFuULxU-h1Q-15" value="" style="endArrow=none;html=1;rounded=0;exitX=1;exitY=0.5;exitDx=0;exitDy=0;" edge="1" parent="1">
          <mxGeometry width="50" height="50" relative="1" as="geometry">
            <mxPoint x="1117.2900000000002" y="870.9999999999999" as="sourcePoint" />
            <mxPoint x="1147.29" y="871" as="targetPoint" />
          </mxGeometry>
        </mxCell>
        <mxCell id="LSAxhmwy-rFuULxU-h1Q-16" value="" style="endArrow=none;html=1;rounded=0;" edge="1" parent="1">
          <mxGeometry width="50" height="50" relative="1" as="geometry">
            <mxPoint x="1496.29" y="870" as="sourcePoint" />
            <mxPoint x="1496.29" y="390" as="targetPoint" />
          </mxGeometry>
        </mxCell>
        <mxCell id="LSAxhmwy-rFuULxU-h1Q-17" value="" style="endArrow=classic;html=1;rounded=0;" edge="1" parent="1">
          <mxGeometry width="50" height="50" relative="1" as="geometry">
            <mxPoint x="1496.29" y="390" as="sourcePoint" />
            <mxPoint x="1046.29" y="390" as="targetPoint" />
          </mxGeometry>
        </mxCell>
        <mxCell id="LSAxhmwy-rFuULxU-h1Q-18" value="" style="endArrow=classic;html=1;rounded=0;exitX=0.5;exitY=1;exitDx=0;exitDy=0;entryX=0.5;entryY=0;entryDx=0;entryDy=0;" edge="1" parent="1" source="LSAxhmwy-rFuULxU-h1Q-2" target="LSAxhmwy-rFuULxU-h1Q-9">
          <mxGeometry width="50" height="50" relative="1" as="geometry">
            <mxPoint x="1256.29" y="360" as="sourcePoint" />
            <mxPoint x="1306.29" y="310" as="targetPoint" />
          </mxGeometry>
        </mxCell>
        <mxCell id="LSAxhmwy-rFuULxU-h1Q-19" value="" style="endArrow=classic;html=1;rounded=0;exitX=0.5;exitY=1;exitDx=0;exitDy=0;entryX=0.5;entryY=0;entryDx=0;entryDy=0;" edge="1" parent="1" source="LSAxhmwy-rFuULxU-h1Q-8" target="LSAxhmwy-rFuULxU-h1Q-2">
          <mxGeometry width="50" height="50" relative="1" as="geometry">
            <mxPoint x="1146.29" y="290" as="sourcePoint" />
            <mxPoint x="1196.29" y="240" as="targetPoint" />
          </mxGeometry>
        </mxCell>
        <mxCell id="LSAxhmwy-rFuULxU-h1Q-20" value="" style="endArrow=classic;html=1;rounded=0;exitX=0.5;exitY=1;exitDx=0;exitDy=0;" edge="1" parent="1" source="LSAxhmwy-rFuULxU-h1Q-1">
          <mxGeometry width="50" height="50" relative="1" as="geometry">
            <mxPoint x="1106.29" y="230" as="sourcePoint" />
            <mxPoint x="1051.29" y="250" as="targetPoint" />
          </mxGeometry>
        </mxCell>
        <mxCell id="LSAxhmwy-rFuULxU-h1Q-21" value="" style="endArrow=classic;html=1;rounded=0;exitX=0;exitY=0.5;exitDx=0;exitDy=0;entryX=0.5;entryY=0;entryDx=0;entryDy=0;" edge="1" parent="1" source="LSAxhmwy-rFuULxU-h1Q-9" target="LSAxhmwy-rFuULxU-h1Q-10">
          <mxGeometry width="50" height="50" relative="1" as="geometry">
            <mxPoint x="816.29" y="320" as="sourcePoint" />
            <mxPoint x="866.29" y="270" as="targetPoint" />
            <Array as="points">
              <mxPoint x="862.29" y="450" />
            </Array>
          </mxGeometry>
        </mxCell>
        <mxCell id="LSAxhmwy-rFuULxU-h1Q-22" value="" style="endArrow=classic;html=1;rounded=0;exitX=1;exitY=0.5;exitDx=0;exitDy=0;entryX=0.808;entryY=0.02;entryDx=0;entryDy=0;entryPerimeter=0;" edge="1" parent="1" source="LSAxhmwy-rFuULxU-h1Q-10" target="LSAxhmwy-rFuULxU-h1Q-11">
          <mxGeometry width="50" height="50" relative="1" as="geometry">
            <mxPoint x="806.29" y="900" as="sourcePoint" />
            <mxPoint x="866.29" y="570" as="targetPoint" />
            <Array as="points">
              <mxPoint x="976.29" y="515" />
            </Array>
          </mxGeometry>
        </mxCell>
        <mxCell id="LSAxhmwy-rFuULxU-h1Q-23" value="" style="endArrow=classic;html=1;rounded=0;exitX=1;exitY=0.5;exitDx=0;exitDy=0;entryX=0.49;entryY=-0.015;entryDx=0;entryDy=0;entryPerimeter=0;" edge="1" parent="1" source="LSAxhmwy-rFuULxU-h1Q-9" target="LSAxhmwy-rFuULxU-h1Q-3">
          <mxGeometry width="50" height="50" relative="1" as="geometry">
            <mxPoint x="1106.29" y="520" as="sourcePoint" />
            <mxPoint x="1156.29" y="470" as="targetPoint" />
            <Array as="points">
              <mxPoint x="1176.29" y="448" />
            </Array>
          </mxGeometry>
        </mxCell>
        <mxCell id="LSAxhmwy-rFuULxU-h1Q-24" value="" style="endArrow=none;html=1;rounded=0;" edge="1" parent="1">
          <mxGeometry width="50" height="50" relative="1" as="geometry">
            <mxPoint x="1147.29" y="871" as="sourcePoint" />
            <mxPoint x="1497.29" y="871" as="targetPoint" />
          </mxGeometry>
        </mxCell>
        <mxCell id="LSAxhmwy-rFuULxU-h1Q-25" value="" style="endArrow=classic;html=1;rounded=0;exitX=0;exitY=0.5;exitDx=0;exitDy=0;entryX=0.375;entryY=0.063;entryDx=0;entryDy=0;entryPerimeter=0;" edge="1" parent="1" source="LSAxhmwy-rFuULxU-h1Q-10" target="LSAxhmwy-rFuULxU-h1Q-26">
          <mxGeometry width="50" height="50" relative="1" as="geometry">
            <mxPoint x="656.29" y="630" as="sourcePoint" />
            <mxPoint x="696.29" y="850" as="targetPoint" />
            <Array as="points">
              <mxPoint x="746.29" y="515" />
              <mxPoint x="746.29" y="690" />
            </Array>
          </mxGeometry>
        </mxCell>
        <mxCell id="LSAxhmwy-rFuULxU-h1Q-26" value="Конец" style="ellipse;whiteSpace=wrap;html=1;" vertex="1" parent="1">
          <mxGeometry x="701.29" y="840" width="120" height="80" as="geometry" />
        </mxCell>
        <mxCell id="LSAxhmwy-rFuULxU-h1Q-27" value="" style="endArrow=classic;html=1;rounded=0;exitX=0.719;exitY=0.99;exitDx=0;exitDy=0;exitPerimeter=0;entryX=0.97;entryY=0.539;entryDx=0;entryDy=0;entryPerimeter=0;" edge="1" parent="1" source="LSAxhmwy-rFuULxU-h1Q-11" target="LSAxhmwy-rFuULxU-h1Q-26">
          <mxGeometry width="50" height="50" relative="1" as="geometry">
            <mxPoint x="886.29" y="850" as="sourcePoint" />
            <mxPoint x="736.29" y="800" as="targetPoint" />
            <Array as="points">
              <mxPoint x="953.29" y="883" />
            </Array>
          </mxGeometry>
        </mxCell>
        <mxCell id="LSAxhmwy-rFuULxU-h1Q-28" value="&lt;h1 style=&quot;margin-top: 0px;&quot;&gt;Функция&amp;nbsp;process_arrays(arrays)&lt;/h1&gt;" style="text;html=1;whiteSpace=wrap;overflow=hidden;rounded=0;" vertex="1" parent="1">
          <mxGeometry x="906.29" y="110" width="403.71" height="80" as="geometry" />
        </mxCell>
        <mxCell id="LSAxhmwy-rFuULxU-h1Q-29" value="Да" style="text;html=1;align=center;verticalAlign=middle;whiteSpace=wrap;rounded=0;" vertex="1" parent="1">
          <mxGeometry x="1107.04" y="425" width="20" height="20" as="geometry" />
        </mxCell>
        <mxCell id="LSAxhmwy-rFuULxU-h1Q-30" value="Да" style="text;html=1;align=center;verticalAlign=middle;whiteSpace=wrap;rounded=0;" vertex="1" parent="1">
          <mxGeometry x="929.29" y="490" width="20" height="20" as="geometry" />
        </mxCell>
        <mxCell id="LSAxhmwy-rFuULxU-h1Q-31" value="Да" style="text;html=1;align=center;verticalAlign=middle;whiteSpace=wrap;rounded=0;" vertex="1" parent="1">
          <mxGeometry x="1310" y="552.5" width="20" height="20" as="geometry" />
        </mxCell>
        <mxCell id="LSAxhmwy-rFuULxU-h1Q-32" value="Нет" style="text;whiteSpace=wrap;html=1;" vertex="1" parent="1">
          <mxGeometry x="766.29" y="490" width="30" height="20" as="geometry" />
        </mxCell>
        <mxCell id="LSAxhmwy-rFuULxU-h1Q-33" value="Нет" style="text;whiteSpace=wrap;html=1;" vertex="1" parent="1">
          <mxGeometry x="940" y="425" width="30" height="20" as="geometry" />
        </mxCell>
        <mxCell id="LSAxhmwy-rFuULxU-h1Q-34" value="Нет" style="text;whiteSpace=wrap;html=1;" vertex="1" parent="1">
          <mxGeometry x="1041.29" y="545" width="30" height="20" as="geometry" />
        </mxCell>
      </root>
    </mxGraphModel>
  </diagram>
</mxfile>
